<svg width="310" height="310" viewBox="0 0 310 310" fill="none" xmlns="http://www.w3.org/2000/svg">
<g filter="url(#filter0_d_5238_978)">
<rect x="16" y="8" width="278" height="278" rx="24" fill="white"/>
<rect x="32" y="24" width="246" height="135" rx="24" fill="#D9D9D9"/>
<rect x="208" y="250" width="70" height="22" rx="11" fill="#450BC8"/>
<path d="M215.6 265V258H218.18C218.563 258 218.908 258.097 219.215 258.29C219.525 258.483 219.772 258.742 219.955 259.065C220.138 259.385 220.23 259.738 220.23 260.125C220.23 260.518 220.137 260.877 219.95 261.2C219.763 261.52 219.513 261.775 219.2 261.965C218.89 262.155 218.55 262.25 218.18 262.25H216.98V265H215.6ZM216.98 260.87H218.025C218.178 260.87 218.317 260.833 218.44 260.76C218.563 260.683 218.662 260.582 218.735 260.455C218.812 260.325 218.85 260.182 218.85 260.025C218.85 259.872 218.812 259.732 218.735 259.605C218.662 259.475 218.563 259.372 218.44 259.295C218.317 259.218 218.178 259.18 218.025 259.18H216.98V260.87ZM222.118 265V258H223.498V263.62H226.318V265H222.118ZM230.516 258H232.086L234.626 265H233.161L232.741 263.84H229.861L229.441 265H227.976L230.516 258ZM230.366 262.46H232.236L231.296 259.895L230.366 262.46ZM239.511 258H241.141L238.721 261.845V265H237.341V261.845L234.921 258H236.551L238.031 260.345L239.511 258ZM246.44 265V258H247.93L250.66 262.505V258H252.04V265H250.55L247.82 260.495V265H246.44ZM257.487 265.13C257.013 265.13 256.568 265.037 256.152 264.85C255.735 264.66 255.368 264.398 255.052 264.065C254.735 263.732 254.487 263.347 254.307 262.91C254.127 262.47 254.037 262 254.037 261.5C254.037 261 254.127 260.532 254.307 260.095C254.487 259.655 254.735 259.268 255.052 258.935C255.368 258.602 255.735 258.342 256.152 258.155C256.568 257.965 257.013 257.87 257.487 257.87C257.963 257.87 258.41 257.965 258.827 258.155C259.243 258.342 259.61 258.602 259.927 258.935C260.243 259.268 260.49 259.655 260.667 260.095C260.847 260.532 260.937 261 260.937 261.5C260.937 262 260.847 262.47 260.667 262.91C260.49 263.347 260.243 263.732 259.927 264.065C259.61 264.398 259.243 264.66 258.827 264.85C258.41 265.037 257.963 265.13 257.487 265.13ZM257.487 263.75C257.77 263.75 258.037 263.692 258.287 263.575C258.537 263.455 258.757 263.292 258.947 263.085C259.137 262.878 259.285 262.64 259.392 262.37C259.502 262.1 259.557 261.81 259.557 261.5C259.557 261.19 259.502 260.9 259.392 260.63C259.285 260.357 259.137 260.118 258.947 259.915C258.757 259.708 258.537 259.547 258.287 259.43C258.037 259.31 257.77 259.25 257.487 259.25C257.203 259.25 256.937 259.31 256.687 259.43C256.437 259.547 256.217 259.708 256.027 259.915C255.837 260.122 255.687 260.36 255.577 260.63C255.47 260.9 255.417 261.19 255.417 261.5C255.417 261.81 255.47 262.102 255.577 262.375C255.687 262.645 255.837 262.883 256.027 263.09C256.217 263.293 256.437 263.455 256.687 263.575C256.937 263.692 257.203 263.75 257.487 263.75ZM264.221 265L262.431 258H263.856L264.996 262.475L266.136 258H267.401L268.541 262.475L269.681 258H271.106L269.326 265H267.766L266.771 261.11L265.781 265H264.221Z" fill="white"/>
<path d="M57.6523 207H56.2402V199.629H53.7324V198.434H60.1543V199.629H57.6523V207ZM63.8691 200.391C64.6895 200.391 65.3086 200.572 65.7266 200.936C66.1484 201.299 66.3594 201.865 66.3594 202.635V207H65.3809L65.1172 206.08H65.0703C64.8867 206.314 64.6973 206.508 64.502 206.66C64.3066 206.812 64.0801 206.926 63.8223 207C63.5684 207.078 63.2578 207.117 62.8906 207.117C62.5039 207.117 62.1582 207.047 61.8535 206.906C61.5488 206.762 61.3086 206.543 61.1328 206.25C60.957 205.957 60.8691 205.586 60.8691 205.137C60.8691 204.469 61.1172 203.967 61.6133 203.631C62.1133 203.295 62.8672 203.109 63.875 203.074L65 203.033V202.693C65 202.244 64.8945 201.924 64.6836 201.732C64.4766 201.541 64.1836 201.445 63.8047 201.445C63.4805 201.445 63.166 201.492 62.8613 201.586C62.5566 201.68 62.2598 201.795 61.9707 201.932L61.5254 200.959C61.8418 200.791 62.2012 200.654 62.6035 200.549C63.0098 200.443 63.4316 200.391 63.8691 200.391ZM64.9941 203.9L64.1562 203.93C63.4688 203.953 62.9863 204.07 62.709 204.281C62.4316 204.492 62.293 204.781 62.293 205.148C62.293 205.469 62.3887 205.703 62.5801 205.852C62.7715 205.996 63.0234 206.068 63.3359 206.068C63.8125 206.068 64.207 205.934 64.5195 205.664C64.8359 205.391 64.9941 204.99 64.9941 204.463V203.9ZM69.6641 197.883V202.289C69.6641 202.488 69.6562 202.707 69.6406 202.945C69.625 203.18 69.6094 203.4 69.5938 203.607H69.623C69.7246 203.471 69.8457 203.311 69.9863 203.127C70.1309 202.943 70.2676 202.783 70.3965 202.646L72.377 200.514H73.959L71.3633 203.303L74.1289 207H72.5117L70.4375 204.152L69.6641 204.814V207H68.2871V197.883H69.6641ZM77.75 200.391C78.3281 200.391 78.8242 200.51 79.2383 200.748C79.6523 200.986 79.9707 201.324 80.1934 201.762C80.416 202.199 80.5273 202.723 80.5273 203.332V204.07H76.1973C76.2129 204.699 76.3809 205.184 76.7012 205.523C77.0254 205.863 77.4785 206.033 78.0605 206.033C78.4746 206.033 78.8457 205.994 79.1738 205.916C79.5059 205.834 79.8477 205.715 80.1992 205.559V206.678C79.875 206.83 79.5449 206.941 79.209 207.012C78.873 207.082 78.4707 207.117 78.002 207.117C77.3652 207.117 76.8047 206.994 76.3203 206.748C75.8398 206.498 75.4629 206.127 75.1895 205.635C74.9199 205.143 74.7852 204.531 74.7852 203.801C74.7852 203.074 74.9082 202.457 75.1543 201.949C75.4004 201.441 75.7461 201.055 76.1914 200.789C76.6367 200.523 77.1562 200.391 77.75 200.391ZM77.75 201.428C77.3164 201.428 76.9648 201.568 76.6953 201.85C76.4297 202.131 76.2734 202.543 76.2266 203.086H79.1797C79.1758 202.762 79.1211 202.475 79.0156 202.225C78.9141 201.975 78.7578 201.779 78.5469 201.639C78.3398 201.498 78.0742 201.428 77.75 201.428ZM87.7402 200.391C88.5605 200.391 89.1797 200.572 89.5977 200.936C90.0195 201.299 90.2305 201.865 90.2305 202.635V207H89.252L88.9883 206.08H88.9414C88.7578 206.314 88.5684 206.508 88.373 206.66C88.1777 206.812 87.9512 206.926 87.6934 207C87.4395 207.078 87.1289 207.117 86.7617 207.117C86.375 207.117 86.0293 207.047 85.7246 206.906C85.4199 206.762 85.1797 206.543 85.0039 206.25C84.8281 205.957 84.7402 205.586 84.7402 205.137C84.7402 204.469 84.9883 203.967 85.4844 203.631C85.9844 203.295 86.7383 203.109 87.7461 203.074L88.8711 203.033V202.693C88.8711 202.244 88.7656 201.924 88.5547 201.732C88.3477 201.541 88.0547 201.445 87.6758 201.445C87.3516 201.445 87.0371 201.492 86.7324 201.586C86.4277 201.68 86.1309 201.795 85.8418 201.932L85.3965 200.959C85.7129 200.791 86.0723 200.654 86.4746 200.549C86.8809 200.443 87.3027 200.391 87.7402 200.391ZM88.8652 203.9L88.0273 203.93C87.3398 203.953 86.8574 204.07 86.5801 204.281C86.3027 204.492 86.1641 204.781 86.1641 205.148C86.1641 205.469 86.2598 205.703 86.4512 205.852C86.6426 205.996 86.8945 206.068 87.207 206.068C87.6836 206.068 88.0781 205.934 88.3906 205.664C88.707 205.391 88.8652 204.99 88.8652 204.463V203.9ZM99.6348 205.148C99.6348 205.574 99.5312 205.934 99.3242 206.227C99.1172 206.52 98.8145 206.742 98.416 206.895C98.0215 207.043 97.5371 207.117 96.9629 207.117C96.5098 207.117 96.1191 207.084 95.791 207.018C95.4668 206.955 95.1602 206.857 94.8711 206.725V205.535C95.1797 205.68 95.5254 205.805 95.9082 205.91C96.2949 206.016 96.6602 206.068 97.0039 206.068C97.457 206.068 97.7832 205.998 97.9824 205.857C98.1816 205.713 98.2812 205.521 98.2812 205.283C98.2812 205.143 98.2402 205.018 98.1582 204.908C98.0801 204.795 97.9316 204.68 97.7129 204.562C97.498 204.441 97.1816 204.297 96.7637 204.129C96.3535 203.965 96.0078 203.801 95.7266 203.637C95.4453 203.473 95.2324 203.275 95.0879 203.045C94.9434 202.811 94.8711 202.512 94.8711 202.148C94.8711 201.574 95.0977 201.139 95.5508 200.842C96.0078 200.541 96.6113 200.391 97.3613 200.391C97.7598 200.391 98.1348 200.432 98.4863 200.514C98.8418 200.592 99.1895 200.707 99.5293 200.859L99.0957 201.896C98.8027 201.768 98.5078 201.662 98.2109 201.58C97.918 201.494 97.6191 201.451 97.3145 201.451C96.959 201.451 96.6875 201.506 96.5 201.615C96.3164 201.725 96.2246 201.881 96.2246 202.084C96.2246 202.236 96.2695 202.365 96.3594 202.471C96.4492 202.576 96.6035 202.682 96.8223 202.787C97.0449 202.893 97.3535 203.023 97.748 203.18C98.1348 203.328 98.4688 203.484 98.75 203.648C99.0352 203.809 99.2539 204.006 99.4062 204.24C99.5586 204.475 99.6348 204.777 99.6348 205.148ZM102.5 197.883V200.174C102.5 200.412 102.492 200.645 102.477 200.871C102.465 201.098 102.451 201.273 102.436 201.398H102.512C102.648 201.172 102.816 200.986 103.016 200.842C103.215 200.693 103.438 200.582 103.684 200.508C103.934 200.434 104.199 200.396 104.48 200.396C104.977 200.396 105.398 200.48 105.746 200.648C106.094 200.812 106.359 201.068 106.543 201.416C106.73 201.764 106.824 202.215 106.824 202.77V207H105.447V203.027C105.447 202.523 105.344 202.146 105.137 201.896C104.93 201.643 104.609 201.516 104.176 201.516C103.758 201.516 103.426 201.604 103.18 201.779C102.938 201.951 102.764 202.207 102.658 202.547C102.553 202.883 102.5 203.293 102.5 203.777V207H101.123V197.883H102.5ZM114.494 203.742C114.494 204.281 114.424 204.76 114.283 205.178C114.143 205.596 113.938 205.949 113.668 206.238C113.398 206.523 113.074 206.742 112.695 206.895C112.316 207.043 111.889 207.117 111.412 207.117C110.967 207.117 110.559 207.043 110.188 206.895C109.816 206.742 109.494 206.523 109.221 206.238C108.951 205.949 108.742 205.596 108.594 205.178C108.445 204.76 108.371 204.281 108.371 203.742C108.371 203.027 108.494 202.422 108.74 201.926C108.99 201.426 109.346 201.045 109.807 200.783C110.268 200.521 110.816 200.391 111.453 200.391C112.051 200.391 112.578 200.521 113.035 200.783C113.492 201.045 113.85 201.426 114.107 201.926C114.365 202.426 114.494 203.031 114.494 203.742ZM109.789 203.742C109.789 204.215 109.846 204.619 109.959 204.955C110.076 205.291 110.256 205.549 110.498 205.729C110.74 205.904 111.053 205.992 111.436 205.992C111.818 205.992 112.131 205.904 112.373 205.729C112.615 205.549 112.793 205.291 112.906 204.955C113.02 204.619 113.076 204.215 113.076 203.742C113.076 203.27 113.02 202.869 112.906 202.541C112.793 202.209 112.615 201.957 112.373 201.785C112.131 201.609 111.816 201.521 111.43 201.521C110.859 201.521 110.443 201.713 110.182 202.096C109.92 202.479 109.789 203.027 109.789 203.742ZM119.363 200.391C119.473 200.391 119.592 200.396 119.721 200.408C119.85 200.42 119.961 200.436 120.055 200.455L119.926 201.744C119.844 201.721 119.742 201.703 119.621 201.691C119.504 201.68 119.398 201.674 119.305 201.674C119.059 201.674 118.824 201.715 118.602 201.797C118.379 201.875 118.182 201.996 118.01 202.16C117.838 202.32 117.703 202.521 117.605 202.764C117.508 203.006 117.459 203.287 117.459 203.607V207H116.076V200.514H117.154L117.342 201.656H117.406C117.535 201.426 117.695 201.215 117.887 201.023C118.078 200.832 118.297 200.68 118.543 200.566C118.793 200.449 119.066 200.391 119.363 200.391ZM123.67 206.004C123.85 206.004 124.027 205.988 124.203 205.957C124.379 205.922 124.539 205.881 124.684 205.834V206.877C124.531 206.943 124.334 207 124.092 207.047C123.85 207.094 123.598 207.117 123.336 207.117C122.969 207.117 122.639 207.057 122.346 206.936C122.053 206.811 121.82 206.598 121.648 206.297C121.477 205.996 121.391 205.58 121.391 205.049V201.562H120.506V200.947L121.455 200.461L121.906 199.072H122.773V200.514H124.631V201.562H122.773V205.031C122.773 205.359 122.855 205.604 123.02 205.764C123.184 205.924 123.4 206.004 123.67 206.004ZM133.479 205.148C133.479 205.574 133.375 205.934 133.168 206.227C132.961 206.52 132.658 206.742 132.26 206.895C131.865 207.043 131.381 207.117 130.807 207.117C130.354 207.117 129.963 207.084 129.635 207.018C129.311 206.955 129.004 206.857 128.715 206.725V205.535C129.023 205.68 129.369 205.805 129.752 205.91C130.139 206.016 130.504 206.068 130.848 206.068C131.301 206.068 131.627 205.998 131.826 205.857C132.025 205.713 132.125 205.521 132.125 205.283C132.125 205.143 132.084 205.018 132.002 204.908C131.924 204.795 131.775 204.68 131.557 204.562C131.342 204.441 131.025 204.297 130.607 204.129C130.197 203.965 129.852 203.801 129.57 203.637C129.289 203.473 129.076 203.275 128.932 203.045C128.787 202.811 128.715 202.512 128.715 202.148C128.715 201.574 128.941 201.139 129.395 200.842C129.852 200.541 130.455 200.391 131.205 200.391C131.604 200.391 131.979 200.432 132.33 200.514C132.686 200.592 133.033 200.707 133.373 200.859L132.939 201.896C132.646 201.768 132.352 201.662 132.055 201.58C131.762 201.494 131.463 201.451 131.158 201.451C130.803 201.451 130.531 201.506 130.344 201.615C130.16 201.725 130.068 201.881 130.068 202.084C130.068 202.236 130.113 202.365 130.203 202.471C130.293 202.576 130.447 202.682 130.666 202.787C130.889 202.893 131.197 203.023 131.592 203.18C131.979 203.328 132.312 203.484 132.594 203.648C132.879 203.809 133.098 204.006 133.25 204.24C133.402 204.475 133.479 204.777 133.479 205.148ZM137.58 207.117C136.967 207.117 136.436 206.998 135.986 206.76C135.537 206.521 135.191 206.156 134.949 205.664C134.707 205.172 134.586 204.547 134.586 203.789C134.586 203 134.719 202.355 134.984 201.855C135.25 201.355 135.617 200.986 136.086 200.748C136.559 200.51 137.1 200.391 137.709 200.391C138.096 200.391 138.445 200.43 138.758 200.508C139.074 200.582 139.342 200.674 139.561 200.783L139.15 201.885C138.912 201.787 138.668 201.705 138.418 201.639C138.168 201.572 137.928 201.539 137.697 201.539C137.318 201.539 137.002 201.623 136.748 201.791C136.498 201.959 136.311 202.209 136.186 202.541C136.064 202.873 136.004 203.285 136.004 203.777C136.004 204.254 136.066 204.656 136.191 204.984C136.316 205.309 136.502 205.555 136.748 205.723C136.994 205.887 137.297 205.969 137.656 205.969C138.012 205.969 138.33 205.926 138.611 205.84C138.893 205.754 139.158 205.643 139.408 205.506V206.701C139.162 206.842 138.898 206.945 138.617 207.012C138.336 207.082 137.99 207.117 137.58 207.117ZM142.309 200.514V207H140.932V200.514H142.309ZM141.629 198.029C141.84 198.029 142.021 198.086 142.174 198.199C142.33 198.312 142.408 198.508 142.408 198.785C142.408 199.059 142.33 199.254 142.174 199.371C142.021 199.484 141.84 199.541 141.629 199.541C141.41 199.541 141.225 199.484 141.072 199.371C140.924 199.254 140.85 199.059 140.85 198.785C140.85 198.508 140.924 198.312 141.072 198.199C141.225 198.086 141.41 198.029 141.629 198.029ZM146.867 200.391C147.445 200.391 147.941 200.51 148.355 200.748C148.77 200.986 149.088 201.324 149.311 201.762C149.533 202.199 149.645 202.723 149.645 203.332V204.07H145.314C145.33 204.699 145.498 205.184 145.818 205.523C146.143 205.863 146.596 206.033 147.178 206.033C147.592 206.033 147.963 205.994 148.291 205.916C148.623 205.834 148.965 205.715 149.316 205.559V206.678C148.992 206.83 148.662 206.941 148.326 207.012C147.99 207.082 147.588 207.117 147.119 207.117C146.482 207.117 145.922 206.994 145.438 206.748C144.957 206.498 144.58 206.127 144.307 205.635C144.037 205.143 143.902 204.531 143.902 203.801C143.902 203.074 144.025 202.457 144.271 201.949C144.518 201.441 144.863 201.055 145.309 200.789C145.754 200.523 146.273 200.391 146.867 200.391ZM146.867 201.428C146.434 201.428 146.082 201.568 145.812 201.85C145.547 202.131 145.391 202.543 145.344 203.086H148.297C148.293 202.762 148.238 202.475 148.133 202.225C148.031 201.975 147.875 201.779 147.664 201.639C147.457 201.498 147.191 201.428 146.867 201.428ZM154.578 200.391C155.309 200.391 155.877 200.58 156.283 200.959C156.693 201.334 156.898 201.938 156.898 202.77V207H155.521V203.027C155.521 202.523 155.418 202.146 155.211 201.896C155.004 201.643 154.684 201.516 154.25 201.516C153.621 201.516 153.184 201.709 152.938 202.096C152.695 202.482 152.574 203.043 152.574 203.777V207H151.197V200.514H152.27L152.463 201.393H152.539C152.68 201.166 152.854 200.98 153.061 200.836C153.271 200.688 153.506 200.576 153.764 200.502C154.025 200.428 154.297 200.391 154.578 200.391ZM161.24 206.004C161.42 206.004 161.598 205.988 161.773 205.957C161.949 205.922 162.109 205.881 162.254 205.834V206.877C162.102 206.943 161.904 207 161.662 207.047C161.42 207.094 161.168 207.117 160.906 207.117C160.539 207.117 160.209 207.057 159.916 206.936C159.623 206.811 159.391 206.598 159.219 206.297C159.047 205.996 158.961 205.58 158.961 205.049V201.562H158.076V200.947L159.025 200.461L159.477 199.072H160.344V200.514H162.201V201.562H160.344V205.031C160.344 205.359 160.426 205.604 160.59 205.764C160.754 205.924 160.971 206.004 161.24 206.004ZM164.949 200.514V207H163.572V200.514H164.949ZM164.27 198.029C164.48 198.029 164.662 198.086 164.814 198.199C164.971 198.312 165.049 198.508 165.049 198.785C165.049 199.059 164.971 199.254 164.814 199.371C164.662 199.484 164.48 199.541 164.27 199.541C164.051 199.541 163.865 199.484 163.713 199.371C163.564 199.254 163.49 199.059 163.49 198.785C163.49 198.508 163.564 198.312 163.713 198.199C163.865 198.086 164.051 198.029 164.27 198.029ZM170.164 201.562H168.588V207H167.211V201.562H166.15V200.9L167.211 200.496V200.045C167.211 199.494 167.297 199.057 167.469 198.732C167.645 198.408 167.895 198.176 168.219 198.035C168.547 197.891 168.938 197.818 169.391 197.818C169.688 197.818 169.959 197.844 170.205 197.895C170.451 197.941 170.658 197.996 170.826 198.059L170.469 199.102C170.336 199.059 170.188 199.02 170.023 198.984C169.859 198.945 169.684 198.926 169.496 198.926C169.184 198.926 168.953 199.023 168.805 199.219C168.66 199.414 168.588 199.699 168.588 200.074V200.514H170.164V201.562ZM172.643 200.514V207H171.266V200.514H172.643ZM171.963 198.029C172.174 198.029 172.355 198.086 172.508 198.199C172.664 198.312 172.742 198.508 172.742 198.785C172.742 199.059 172.664 199.254 172.508 199.371C172.355 199.484 172.174 199.541 171.963 199.541C171.744 199.541 171.559 199.484 171.406 199.371C171.258 199.254 171.184 199.059 171.184 198.785C171.184 198.508 171.258 198.312 171.406 198.199C171.559 198.086 171.744 198.029 171.963 198.029ZM177.225 207.117C176.611 207.117 176.08 206.998 175.631 206.76C175.182 206.521 174.836 206.156 174.594 205.664C174.352 205.172 174.23 204.547 174.23 203.789C174.23 203 174.363 202.355 174.629 201.855C174.895 201.355 175.262 200.986 175.73 200.748C176.203 200.51 176.744 200.391 177.354 200.391C177.74 200.391 178.09 200.43 178.402 200.508C178.719 200.582 178.986 200.674 179.205 200.783L178.795 201.885C178.557 201.787 178.312 201.705 178.062 201.639C177.812 201.572 177.572 201.539 177.342 201.539C176.963 201.539 176.646 201.623 176.393 201.791C176.143 201.959 175.955 202.209 175.83 202.541C175.709 202.873 175.648 203.285 175.648 203.777C175.648 204.254 175.711 204.656 175.836 204.984C175.961 205.309 176.146 205.555 176.393 205.723C176.639 205.887 176.941 205.969 177.301 205.969C177.656 205.969 177.975 205.926 178.256 205.84C178.537 205.754 178.803 205.643 179.053 205.506V206.701C178.807 206.842 178.543 206.945 178.262 207.012C177.98 207.082 177.635 207.117 177.225 207.117ZM183.119 200.391C183.939 200.391 184.559 200.572 184.977 200.936C185.398 201.299 185.609 201.865 185.609 202.635V207H184.631L184.367 206.08H184.32C184.137 206.314 183.947 206.508 183.752 206.66C183.557 206.812 183.33 206.926 183.072 207C182.818 207.078 182.508 207.117 182.141 207.117C181.754 207.117 181.408 207.047 181.104 206.906C180.799 206.762 180.559 206.543 180.383 206.25C180.207 205.957 180.119 205.586 180.119 205.137C180.119 204.469 180.367 203.967 180.863 203.631C181.363 203.295 182.117 203.109 183.125 203.074L184.25 203.033V202.693C184.25 202.244 184.145 201.924 183.934 201.732C183.727 201.541 183.434 201.445 183.055 201.445C182.73 201.445 182.416 201.492 182.111 201.586C181.807 201.68 181.51 201.795 181.221 201.932L180.775 200.959C181.092 200.791 181.451 200.654 181.854 200.549C182.26 200.443 182.682 200.391 183.119 200.391ZM184.244 203.9L183.406 203.93C182.719 203.953 182.236 204.07 181.959 204.281C181.682 204.492 181.543 204.781 181.543 205.148C181.543 205.469 181.639 205.703 181.83 205.852C182.021 205.996 182.273 206.068 182.586 206.068C183.062 206.068 183.457 205.934 183.77 205.664C184.086 205.391 184.244 204.99 184.244 204.463V203.9ZM188.92 207H187.537V197.883H188.92V207ZM192.271 207H190.889V197.883H192.271V207ZM193.262 200.514H194.762L196.092 204.217C196.15 204.385 196.203 204.551 196.25 204.715C196.301 204.875 196.344 205.033 196.379 205.189C196.418 205.346 196.449 205.502 196.473 205.658H196.508C196.547 205.455 196.602 205.229 196.672 204.979C196.746 204.725 196.828 204.471 196.918 204.217L198.195 200.514H199.678L196.895 207.891C196.734 208.312 196.537 208.672 196.303 208.969C196.072 209.27 195.799 209.496 195.482 209.648C195.166 209.805 194.805 209.883 194.398 209.883C194.203 209.883 194.033 209.871 193.889 209.848C193.744 209.828 193.621 209.807 193.52 209.783V208.682C193.602 208.701 193.705 208.719 193.83 208.734C193.955 208.75 194.084 208.758 194.217 208.758C194.463 208.758 194.676 208.709 194.855 208.611C195.035 208.514 195.188 208.375 195.312 208.195C195.438 208.02 195.541 207.818 195.623 207.592L195.852 206.982L193.262 200.514ZM205.262 207L202.795 200.514H204.254L205.59 204.322C205.676 204.564 205.754 204.826 205.824 205.107C205.895 205.389 205.943 205.625 205.971 205.816H206.018C206.045 205.617 206.098 205.379 206.176 205.102C206.254 204.82 206.334 204.561 206.416 204.322L207.752 200.514H209.205L206.738 207H205.262ZM212.732 200.391C213.553 200.391 214.172 200.572 214.59 200.936C215.012 201.299 215.223 201.865 215.223 202.635V207H214.244L213.98 206.08H213.934C213.75 206.314 213.561 206.508 213.365 206.66C213.17 206.812 212.943 206.926 212.686 207C212.432 207.078 212.121 207.117 211.754 207.117C211.367 207.117 211.021 207.047 210.717 206.906C210.412 206.762 210.172 206.543 209.996 206.25C209.82 205.957 209.732 205.586 209.732 205.137C209.732 204.469 209.98 203.967 210.477 203.631C210.977 203.295 211.73 203.109 212.738 203.074L213.863 203.033V202.693C213.863 202.244 213.758 201.924 213.547 201.732C213.34 201.541 213.047 201.445 212.668 201.445C212.344 201.445 212.029 201.492 211.725 201.586C211.42 201.68 211.123 201.795 210.834 201.932L210.389 200.959C210.705 200.791 211.064 200.654 211.467 200.549C211.873 200.443 212.295 200.391 212.732 200.391ZM213.857 203.9L213.02 203.93C212.332 203.953 211.85 204.07 211.572 204.281C211.295 204.492 211.156 204.781 211.156 205.148C211.156 205.469 211.252 205.703 211.443 205.852C211.635 205.996 211.887 206.068 212.199 206.068C212.676 206.068 213.07 205.934 213.383 205.664C213.699 205.391 213.857 204.99 213.857 204.463V203.9ZM218.533 207H217.15V197.883H218.533V207ZM221.879 200.514V207H220.502V200.514H221.879ZM221.199 198.029C221.41 198.029 221.592 198.086 221.744 198.199C221.9 198.312 221.979 198.508 221.979 198.785C221.979 199.059 221.9 199.254 221.744 199.371C221.592 199.484 221.41 199.541 221.199 199.541C220.98 199.541 220.795 199.484 220.643 199.371C220.494 199.254 220.42 199.059 220.42 198.785C220.42 198.508 220.494 198.312 220.643 198.199C220.795 198.086 220.98 198.029 221.199 198.029ZM226.033 207.117C225.26 207.117 224.639 206.836 224.17 206.273C223.705 205.707 223.473 204.873 223.473 203.771C223.473 202.658 223.709 201.816 224.182 201.246C224.658 200.676 225.285 200.391 226.062 200.391C226.391 200.391 226.678 200.436 226.924 200.525C227.17 200.611 227.381 200.729 227.557 200.877C227.736 201.025 227.889 201.191 228.014 201.375H228.078C228.059 201.254 228.035 201.08 228.008 200.854C227.984 200.623 227.973 200.41 227.973 200.215V197.883H229.355V207H228.277L228.031 206.115H227.973C227.855 206.303 227.707 206.473 227.527 206.625C227.352 206.773 227.141 206.893 226.895 206.982C226.652 207.072 226.365 207.117 226.033 207.117ZM226.42 205.998C227.01 205.998 227.426 205.828 227.668 205.488C227.91 205.148 228.035 204.639 228.043 203.959V203.777C228.043 203.051 227.926 202.494 227.691 202.107C227.457 201.717 227.029 201.521 226.408 201.521C225.912 201.521 225.533 201.723 225.271 202.125C225.014 202.523 224.885 203.08 224.885 203.795C224.885 204.51 225.014 205.057 225.271 205.436C225.533 205.811 225.916 205.998 226.42 205.998ZM233.873 200.391C234.693 200.391 235.312 200.572 235.73 200.936C236.152 201.299 236.363 201.865 236.363 202.635V207H235.385L235.121 206.08H235.074C234.891 206.314 234.701 206.508 234.506 206.66C234.311 206.812 234.084 206.926 233.826 207C233.572 207.078 233.262 207.117 232.895 207.117C232.508 207.117 232.162 207.047 231.857 206.906C231.553 206.762 231.312 206.543 231.137 206.25C230.961 205.957 230.873 205.586 230.873 205.137C230.873 204.469 231.121 203.967 231.617 203.631C232.117 203.295 232.871 203.109 233.879 203.074L235.004 203.033V202.693C235.004 202.244 234.898 201.924 234.688 201.732C234.48 201.541 234.188 201.445 233.809 201.445C233.484 201.445 233.17 201.492 232.865 201.586C232.561 201.68 232.264 201.795 231.975 201.932L231.529 200.959C231.846 200.791 232.205 200.654 232.607 200.549C233.014 200.443 233.436 200.391 233.873 200.391ZM234.998 203.9L234.16 203.93C233.473 203.953 232.99 204.07 232.713 204.281C232.436 204.492 232.297 204.781 232.297 205.148C232.297 205.469 232.393 205.703 232.584 205.852C232.775 205.996 233.027 206.068 233.34 206.068C233.816 206.068 234.211 205.934 234.523 205.664C234.84 205.391 234.998 204.99 234.998 204.463V203.9ZM240.705 206.004C240.885 206.004 241.062 205.988 241.238 205.957C241.414 205.922 241.574 205.881 241.719 205.834V206.877C241.566 206.943 241.369 207 241.127 207.047C240.885 207.094 240.633 207.117 240.371 207.117C240.004 207.117 239.674 207.057 239.381 206.936C239.088 206.811 238.855 206.598 238.684 206.297C238.512 205.996 238.426 205.58 238.426 205.049V201.562H237.541V200.947L238.49 200.461L238.941 199.072H239.809V200.514H241.666V201.562H239.809V205.031C239.809 205.359 239.891 205.604 240.055 205.764C240.219 205.924 240.436 206.004 240.705 206.004ZM245.621 200.391C246.199 200.391 246.695 200.51 247.109 200.748C247.523 200.986 247.842 201.324 248.064 201.762C248.287 202.199 248.398 202.723 248.398 203.332V204.07H244.068C244.084 204.699 244.252 205.184 244.572 205.523C244.896 205.863 245.35 206.033 245.932 206.033C246.346 206.033 246.717 205.994 247.045 205.916C247.377 205.834 247.719 205.715 248.07 205.559V206.678C247.746 206.83 247.416 206.941 247.08 207.012C246.744 207.082 246.342 207.117 245.873 207.117C245.236 207.117 244.676 206.994 244.191 206.748C243.711 206.498 243.334 206.127 243.061 205.635C242.791 205.143 242.656 204.531 242.656 203.801C242.656 203.074 242.779 202.457 243.025 201.949C243.271 201.441 243.617 201.055 244.062 200.789C244.508 200.523 245.027 200.391 245.621 200.391ZM245.621 201.428C245.188 201.428 244.836 201.568 244.566 201.85C244.301 202.131 244.145 202.543 244.098 203.086H247.051C247.047 202.762 246.992 202.475 246.887 202.225C246.785 201.975 246.629 201.779 246.418 201.639C246.211 201.498 245.945 201.428 245.621 201.428ZM252.131 207.117C251.357 207.117 250.736 206.836 250.268 206.273C249.803 205.707 249.57 204.873 249.57 203.771C249.57 202.658 249.807 201.816 250.279 201.246C250.756 200.676 251.383 200.391 252.16 200.391C252.488 200.391 252.775 200.436 253.021 200.525C253.268 200.611 253.479 200.729 253.654 200.877C253.834 201.025 253.986 201.191 254.111 201.375H254.176C254.156 201.254 254.133 201.08 254.105 200.854C254.082 200.623 254.07 200.41 254.07 200.215V197.883H255.453V207H254.375L254.129 206.115H254.07C253.953 206.303 253.805 206.473 253.625 206.625C253.449 206.773 253.238 206.893 252.992 206.982C252.75 207.072 252.463 207.117 252.131 207.117ZM252.518 205.998C253.107 205.998 253.523 205.828 253.766 205.488C254.008 205.148 254.133 204.639 254.141 203.959V203.777C254.141 203.051 254.023 202.494 253.789 202.107C253.555 201.717 253.127 201.521 252.506 201.521C252.01 201.521 251.631 201.723 251.369 202.125C251.111 202.523 250.982 203.08 250.982 203.795C250.982 204.51 251.111 205.057 251.369 205.436C251.631 205.811 252.014 205.998 252.518 205.998ZM42.8164 218.391C43.6367 218.391 44.2559 218.572 44.6738 218.936C45.0957 219.299 45.3066 219.865 45.3066 220.635V225H44.3281L44.0645 224.08H44.0176C43.834 224.314 43.6445 224.508 43.4492 224.66C43.2539 224.812 43.0273 224.926 42.7695 225C42.5156 225.078 42.2051 225.117 41.8379 225.117C41.4512 225.117 41.1055 225.047 40.8008 224.906C40.4961 224.762 40.2559 224.543 40.0801 224.25C39.9043 223.957 39.8164 223.586 39.8164 223.137C39.8164 222.469 40.0645 221.967 40.5605 221.631C41.0605 221.295 41.8145 221.109 42.8223 221.074L43.9473 221.033V220.693C43.9473 220.244 43.8418 219.924 43.6309 219.732C43.4238 219.541 43.1309 219.445 42.752 219.445C42.4277 219.445 42.1133 219.492 41.8086 219.586C41.5039 219.68 41.207 219.795 40.918 219.932L40.4727 218.959C40.7891 218.791 41.1484 218.654 41.5508 218.549C41.957 218.443 42.3789 218.391 42.8164 218.391ZM43.9414 221.9L43.1035 221.93C42.416 221.953 41.9336 222.07 41.6562 222.281C41.3789 222.492 41.2402 222.781 41.2402 223.148C41.2402 223.469 41.3359 223.703 41.5273 223.852C41.7188 223.996 41.9707 224.068 42.2832 224.068C42.7598 224.068 43.1543 223.934 43.4668 223.664C43.7832 223.391 43.9414 222.99 43.9414 222.463V221.9ZM51.5938 223.148C51.5938 223.574 51.4902 223.934 51.2832 224.227C51.0762 224.52 50.7734 224.742 50.375 224.895C49.9805 225.043 49.4961 225.117 48.9219 225.117C48.4688 225.117 48.0781 225.084 47.75 225.018C47.4258 224.955 47.1191 224.857 46.8301 224.725V223.535C47.1387 223.68 47.4844 223.805 47.8672 223.91C48.2539 224.016 48.6191 224.068 48.9629 224.068C49.416 224.068 49.7422 223.998 49.9414 223.857C50.1406 223.713 50.2402 223.521 50.2402 223.283C50.2402 223.143 50.1992 223.018 50.1172 222.908C50.0391 222.795 49.8906 222.68 49.6719 222.562C49.457 222.441 49.1406 222.297 48.7227 222.129C48.3125 221.965 47.9668 221.801 47.6855 221.637C47.4043 221.473 47.1914 221.275 47.0469 221.045C46.9023 220.811 46.8301 220.512 46.8301 220.148C46.8301 219.574 47.0566 219.139 47.5098 218.842C47.9668 218.541 48.5703 218.391 49.3203 218.391C49.7188 218.391 50.0938 218.432 50.4453 218.514C50.8008 218.592 51.1484 218.707 51.4883 218.859L51.0547 219.896C50.7617 219.768 50.4668 219.662 50.1699 219.58C49.877 219.494 49.5781 219.451 49.2734 219.451C48.918 219.451 48.6465 219.506 48.459 219.615C48.2754 219.725 48.1836 219.881 48.1836 220.084C48.1836 220.236 48.2285 220.365 48.3184 220.471C48.4082 220.576 48.5625 220.682 48.7812 220.787C49.0039 220.893 49.3125 221.023 49.707 221.18C50.0938 221.328 50.4277 221.484 50.709 221.648C50.9941 221.809 51.2129 222.006 51.3652 222.24C51.5176 222.475 51.5938 222.777 51.5938 223.148ZM57.4414 223.148C57.4414 223.574 57.3379 223.934 57.1309 224.227C56.9238 224.52 56.6211 224.742 56.2227 224.895C55.8281 225.043 55.3438 225.117 54.7695 225.117C54.3164 225.117 53.9258 225.084 53.5977 225.018C53.2734 224.955 52.9668 224.857 52.6777 224.725V223.535C52.9863 223.68 53.332 223.805 53.7148 223.91C54.1016 224.016 54.4668 224.068 54.8105 224.068C55.2637 224.068 55.5898 223.998 55.7891 223.857C55.9883 223.713 56.0879 223.521 56.0879 223.283C56.0879 223.143 56.0469 223.018 55.9648 222.908C55.8867 222.795 55.7383 222.68 55.5195 222.562C55.3047 222.441 54.9883 222.297 54.5703 222.129C54.1602 221.965 53.8145 221.801 53.5332 221.637C53.252 221.473 53.0391 221.275 52.8945 221.045C52.75 220.811 52.6777 220.512 52.6777 220.148C52.6777 219.574 52.9043 219.139 53.3574 218.842C53.8145 218.541 54.418 218.391 55.168 218.391C55.5664 218.391 55.9414 218.432 56.293 218.514C56.6484 218.592 56.9961 218.707 57.3359 218.859L56.9023 219.896C56.6094 219.768 56.3145 219.662 56.0176 219.58C55.7246 219.494 55.4258 219.451 55.1211 219.451C54.7656 219.451 54.4941 219.506 54.3066 219.615C54.123 219.725 54.0312 219.881 54.0312 220.084C54.0312 220.236 54.0762 220.365 54.166 220.471C54.2559 220.576 54.4102 220.682 54.6289 220.787C54.8516 220.893 55.1602 221.023 55.5547 221.18C55.9414 221.328 56.2754 221.484 56.5566 221.648C56.8418 221.809 57.0605 222.006 57.2129 222.24C57.3652 222.475 57.4414 222.777 57.4414 223.148ZM61.5137 218.391C62.0918 218.391 62.5879 218.51 63.002 218.748C63.416 218.986 63.7344 219.324 63.957 219.762C64.1797 220.199 64.291 220.723 64.291 221.332V222.07H59.9609C59.9766 222.699 60.1445 223.184 60.4648 223.523C60.7891 223.863 61.2422 224.033 61.8242 224.033C62.2383 224.033 62.6094 223.994 62.9375 223.916C63.2695 223.834 63.6113 223.715 63.9629 223.559V224.678C63.6387 224.83 63.3086 224.941 62.9727 225.012C62.6367 225.082 62.2344 225.117 61.7656 225.117C61.1289 225.117 60.5684 224.994 60.084 224.748C59.6035 224.498 59.2266 224.127 58.9531 223.635C58.6836 223.143 58.5488 222.531 58.5488 221.801C58.5488 221.074 58.6719 220.457 58.918 219.949C59.1641 219.441 59.5098 219.055 59.9551 218.789C60.4004 218.523 60.9199 218.391 61.5137 218.391ZM61.5137 219.428C61.0801 219.428 60.7285 219.568 60.459 219.85C60.1934 220.131 60.0371 220.543 59.9902 221.086H62.9434C62.9395 220.762 62.8848 220.475 62.7793 220.225C62.6777 219.975 62.5215 219.779 62.3105 219.639C62.1035 219.498 61.8379 219.428 61.5137 219.428ZM70.2031 223.148C70.2031 223.574 70.0996 223.934 69.8926 224.227C69.6855 224.52 69.3828 224.742 68.9844 224.895C68.5898 225.043 68.1055 225.117 67.5312 225.117C67.0781 225.117 66.6875 225.084 66.3594 225.018C66.0352 224.955 65.7285 224.857 65.4395 224.725V223.535C65.748 223.68 66.0938 223.805 66.4766 223.91C66.8633 224.016 67.2285 224.068 67.5723 224.068C68.0254 224.068 68.3516 223.998 68.5508 223.857C68.75 223.713 68.8496 223.521 68.8496 223.283C68.8496 223.143 68.8086 223.018 68.7266 222.908C68.6484 222.795 68.5 222.68 68.2812 222.562C68.0664 222.441 67.75 222.297 67.332 222.129C66.9219 221.965 66.5762 221.801 66.2949 221.637C66.0137 221.473 65.8008 221.275 65.6562 221.045C65.5117 220.811 65.4395 220.512 65.4395 220.148C65.4395 219.574 65.666 219.139 66.1191 218.842C66.5762 218.541 67.1797 218.391 67.9297 218.391C68.3281 218.391 68.7031 218.432 69.0547 218.514C69.4102 218.592 69.7578 218.707 70.0977 218.859L69.6641 219.896C69.3711 219.768 69.0762 219.662 68.7793 219.58C68.4863 219.494 68.1875 219.451 67.8828 219.451C67.5273 219.451 67.2559 219.506 67.0684 219.615C66.8848 219.725 66.793 219.881 66.793 220.084C66.793 220.236 66.8379 220.365 66.9277 220.471C67.0176 220.576 67.1719 220.682 67.3906 220.787C67.6133 220.893 67.9219 221.023 68.3164 221.18C68.7031 221.328 69.0371 221.484 69.3184 221.648C69.6035 221.809 69.8223 222.006 69.9746 222.24C70.127 222.475 70.2031 222.777 70.2031 223.148ZM76.0508 223.148C76.0508 223.574 75.9473 223.934 75.7402 224.227C75.5332 224.52 75.2305 224.742 74.832 224.895C74.4375 225.043 73.9531 225.117 73.3789 225.117C72.9258 225.117 72.5352 225.084 72.207 225.018C71.8828 224.955 71.5762 224.857 71.2871 224.725V223.535C71.5957 223.68 71.9414 223.805 72.3242 223.91C72.7109 224.016 73.0762 224.068 73.4199 224.068C73.873 224.068 74.1992 223.998 74.3984 223.857C74.5977 223.713 74.6973 223.521 74.6973 223.283C74.6973 223.143 74.6562 223.018 74.5742 222.908C74.4961 222.795 74.3477 222.68 74.1289 222.562C73.9141 222.441 73.5977 222.297 73.1797 222.129C72.7695 221.965 72.4238 221.801 72.1426 221.637C71.8613 221.473 71.6484 221.275 71.5039 221.045C71.3594 220.811 71.2871 220.512 71.2871 220.148C71.2871 219.574 71.5137 219.139 71.9668 218.842C72.4238 218.541 73.0273 218.391 73.7773 218.391C74.1758 218.391 74.5508 218.432 74.9023 218.514C75.2578 218.592 75.6055 218.707 75.9453 218.859L75.5117 219.896C75.2188 219.768 74.9238 219.662 74.627 219.58C74.334 219.494 74.0352 219.451 73.7305 219.451C73.375 219.451 73.1035 219.506 72.916 219.615C72.7324 219.725 72.6406 219.881 72.6406 220.084C72.6406 220.236 72.6855 220.365 72.7754 220.471C72.8652 220.576 73.0195 220.682 73.2383 220.787C73.4609 220.893 73.7695 221.023 74.1641 221.18C74.5508 221.328 74.8848 221.484 75.166 221.648C75.4512 221.809 75.6699 222.006 75.8223 222.24C75.9746 222.475 76.0508 222.777 76.0508 223.148ZM84.8691 218.391C85.5957 218.391 86.1426 218.578 86.5098 218.953C86.8809 219.328 87.0664 219.93 87.0664 220.758V225H85.6895V221.004C85.6895 220.512 85.5938 220.141 85.4023 219.891C85.2109 219.641 84.9199 219.516 84.5293 219.516C83.9824 219.516 83.5879 219.691 83.3457 220.043C83.1074 220.391 82.9883 220.896 82.9883 221.561V225H81.6113V221.004C81.6113 220.676 81.5684 220.402 81.4824 220.184C81.4004 219.961 81.2734 219.795 81.1016 219.686C80.9297 219.572 80.7129 219.516 80.4512 219.516C80.0723 219.516 79.7695 219.602 79.543 219.773C79.3203 219.945 79.1602 220.199 79.0625 220.535C78.9648 220.867 78.916 221.275 78.916 221.76V225H77.5391V218.514H78.6113L78.8047 219.387H78.8809C79.0137 219.16 79.1777 218.975 79.373 218.83C79.5723 218.682 79.793 218.572 80.0352 218.502C80.2773 218.428 80.5293 218.391 80.791 218.391C81.2754 218.391 81.6836 218.477 82.0156 218.648C82.3477 218.816 82.5957 219.074 82.7598 219.422H82.8652C83.0684 219.07 83.3516 218.811 83.7148 218.643C84.0781 218.475 84.4629 218.391 84.8691 218.391ZM91.5723 218.391C92.1504 218.391 92.6465 218.51 93.0605 218.748C93.4746 218.986 93.793 219.324 94.0156 219.762C94.2383 220.199 94.3496 220.723 94.3496 221.332V222.07H90.0195C90.0352 222.699 90.2031 223.184 90.5234 223.523C90.8477 223.863 91.3008 224.033 91.8828 224.033C92.2969 224.033 92.668 223.994 92.9961 223.916C93.3281 223.834 93.6699 223.715 94.0215 223.559V224.678C93.6973 224.83 93.3672 224.941 93.0312 225.012C92.6953 225.082 92.293 225.117 91.8242 225.117C91.1875 225.117 90.627 224.994 90.1426 224.748C89.6621 224.498 89.2852 224.127 89.0117 223.635C88.7422 223.143 88.6074 222.531 88.6074 221.801C88.6074 221.074 88.7305 220.457 88.9766 219.949C89.2227 219.441 89.5684 219.055 90.0137 218.789C90.459 218.523 90.9785 218.391 91.5723 218.391ZM91.5723 219.428C91.1387 219.428 90.7871 219.568 90.5176 219.85C90.252 220.131 90.0957 220.543 90.0488 221.086H93.002C92.998 220.762 92.9434 220.475 92.8379 220.225C92.7363 219.975 92.5801 219.779 92.3691 219.639C92.1621 219.498 91.8965 219.428 91.5723 219.428ZM99.2832 218.391C100.014 218.391 100.582 218.58 100.988 218.959C101.398 219.334 101.604 219.938 101.604 220.77V225H100.227V221.027C100.227 220.523 100.123 220.146 99.916 219.896C99.709 219.643 99.3887 219.516 98.9551 219.516C98.3262 219.516 97.8887 219.709 97.6426 220.096C97.4004 220.482 97.2793 221.043 97.2793 221.777V225H95.9023V218.514H96.9746L97.168 219.393H97.2441C97.3848 219.166 97.5586 218.98 97.7656 218.836C97.9766 218.688 98.2109 218.576 98.4688 218.502C98.7305 218.428 99.002 218.391 99.2832 218.391ZM105.945 224.004C106.125 224.004 106.303 223.988 106.479 223.957C106.654 223.922 106.814 223.881 106.959 223.834V224.877C106.807 224.943 106.609 225 106.367 225.047C106.125 225.094 105.873 225.117 105.611 225.117C105.244 225.117 104.914 225.057 104.621 224.936C104.328 224.811 104.096 224.598 103.924 224.297C103.752 223.996 103.666 223.58 103.666 223.049V219.562H102.781V218.947L103.73 218.461L104.182 217.072H105.049V218.514H106.906V219.562H105.049V223.031C105.049 223.359 105.131 223.604 105.295 223.764C105.459 223.924 105.676 224.004 105.945 224.004ZM113.809 224.004C113.988 224.004 114.166 223.988 114.342 223.957C114.518 223.922 114.678 223.881 114.822 223.834V224.877C114.67 224.943 114.473 225 114.23 225.047C113.988 225.094 113.736 225.117 113.475 225.117C113.107 225.117 112.777 225.057 112.484 224.936C112.191 224.811 111.959 224.598 111.787 224.297C111.615 223.996 111.529 223.58 111.529 223.049V219.562H110.645V218.947L111.594 218.461L112.045 217.072H112.912V218.514H114.77V219.562H112.912V223.031C112.912 223.359 112.994 223.604 113.158 223.764C113.322 223.924 113.539 224.004 113.809 224.004ZM121.883 221.742C121.883 222.281 121.812 222.76 121.672 223.178C121.531 223.596 121.326 223.949 121.057 224.238C120.787 224.523 120.463 224.742 120.084 224.895C119.705 225.043 119.277 225.117 118.801 225.117C118.355 225.117 117.947 225.043 117.576 224.895C117.205 224.742 116.883 224.523 116.609 224.238C116.34 223.949 116.131 223.596 115.982 223.178C115.834 222.76 115.76 222.281 115.76 221.742C115.76 221.027 115.883 220.422 116.129 219.926C116.379 219.426 116.734 219.045 117.195 218.783C117.656 218.521 118.205 218.391 118.842 218.391C119.439 218.391 119.967 218.521 120.424 218.783C120.881 219.045 121.238 219.426 121.496 219.926C121.754 220.426 121.883 221.031 121.883 221.742ZM117.178 221.742C117.178 222.215 117.234 222.619 117.348 222.955C117.465 223.291 117.645 223.549 117.887 223.729C118.129 223.904 118.441 223.992 118.824 223.992C119.207 223.992 119.52 223.904 119.762 223.729C120.004 223.549 120.182 223.291 120.295 222.955C120.408 222.619 120.465 222.215 120.465 221.742C120.465 221.27 120.408 220.869 120.295 220.541C120.182 220.209 120.004 219.957 119.762 219.785C119.52 219.609 119.205 219.521 118.818 219.521C118.248 219.521 117.832 219.713 117.57 220.096C117.309 220.479 117.178 221.027 117.178 221.742ZM128.434 227.883C127.555 227.883 126.881 227.725 126.412 227.408C125.943 227.092 125.709 226.648 125.709 226.078C125.709 225.68 125.834 225.342 126.084 225.064C126.334 224.791 126.691 224.602 127.156 224.496C126.98 224.418 126.828 224.297 126.699 224.133C126.574 223.965 126.512 223.779 126.512 223.576C126.512 223.334 126.58 223.127 126.717 222.955C126.854 222.783 127.059 222.617 127.332 222.457C126.992 222.312 126.719 222.078 126.512 221.754C126.309 221.426 126.207 221.041 126.207 220.6C126.207 220.131 126.307 219.732 126.506 219.404C126.705 219.072 126.996 218.82 127.379 218.648C127.762 218.473 128.225 218.385 128.768 218.385C128.885 218.385 129.012 218.393 129.148 218.408C129.289 218.42 129.418 218.436 129.535 218.455C129.656 218.471 129.748 218.488 129.811 218.508H132.055V219.275L130.953 219.48C131.059 219.629 131.143 219.799 131.205 219.99C131.268 220.178 131.299 220.383 131.299 220.605C131.299 221.277 131.066 221.807 130.602 222.193C130.141 222.576 129.504 222.768 128.691 222.768C128.496 222.76 128.307 222.744 128.123 222.721C127.982 222.807 127.875 222.902 127.801 223.008C127.727 223.109 127.689 223.225 127.689 223.354C127.689 223.459 127.727 223.545 127.801 223.611C127.875 223.674 127.984 223.721 128.129 223.752C128.277 223.783 128.457 223.799 128.668 223.799H129.787C130.498 223.799 131.041 223.949 131.416 224.25C131.791 224.551 131.979 224.992 131.979 225.574C131.979 226.312 131.674 226.881 131.064 227.279C130.455 227.682 129.578 227.883 128.434 227.883ZM128.486 226.916C128.967 226.916 129.371 226.869 129.699 226.775C130.027 226.682 130.275 226.547 130.443 226.371C130.611 226.199 130.695 225.994 130.695 225.756C130.695 225.545 130.643 225.383 130.537 225.27C130.432 225.156 130.273 225.078 130.062 225.035C129.852 224.992 129.59 224.971 129.277 224.971H128.258C128.004 224.971 127.779 225.01 127.584 225.088C127.389 225.17 127.236 225.287 127.127 225.439C127.021 225.592 126.969 225.775 126.969 225.99C126.969 226.287 127.1 226.516 127.361 226.676C127.627 226.836 128.002 226.916 128.486 226.916ZM128.756 221.865C129.158 221.865 129.457 221.756 129.652 221.537C129.848 221.314 129.945 221.002 129.945 220.6C129.945 220.162 129.844 219.834 129.641 219.615C129.441 219.396 129.145 219.287 128.75 219.287C128.363 219.287 128.068 219.398 127.865 219.621C127.666 219.844 127.566 220.174 127.566 220.611C127.566 221.006 127.666 221.314 127.865 221.537C128.068 221.756 128.365 221.865 128.756 221.865ZM135.822 218.391C136.4 218.391 136.896 218.51 137.311 218.748C137.725 218.986 138.043 219.324 138.266 219.762C138.488 220.199 138.6 220.723 138.6 221.332V222.07H134.27C134.285 222.699 134.453 223.184 134.773 223.523C135.098 223.863 135.551 224.033 136.133 224.033C136.547 224.033 136.918 223.994 137.246 223.916C137.578 223.834 137.92 223.715 138.271 223.559V224.678C137.947 224.83 137.617 224.941 137.281 225.012C136.945 225.082 136.543 225.117 136.074 225.117C135.438 225.117 134.877 224.994 134.393 224.748C133.912 224.498 133.535 224.127 133.262 223.635C132.992 223.143 132.857 222.531 132.857 221.801C132.857 221.074 132.98 220.457 133.227 219.949C133.473 219.441 133.818 219.055 134.264 218.789C134.709 218.523 135.229 218.391 135.822 218.391ZM135.822 219.428C135.389 219.428 135.037 219.568 134.768 219.85C134.502 220.131 134.346 220.543 134.299 221.086H137.252C137.248 220.762 137.193 220.475 137.088 220.225C136.986 219.975 136.83 219.779 136.619 219.639C136.412 219.498 136.146 219.428 135.822 219.428ZM142.566 224.004C142.746 224.004 142.924 223.988 143.1 223.957C143.275 223.922 143.436 223.881 143.58 223.834V224.877C143.428 224.943 143.23 225 142.988 225.047C142.746 225.094 142.494 225.117 142.232 225.117C141.865 225.117 141.535 225.057 141.242 224.936C140.949 224.811 140.717 224.598 140.545 224.297C140.373 223.996 140.287 223.58 140.287 223.049V219.562H139.402V218.947L140.352 218.461L140.803 217.072H141.67V218.514H143.527V219.562H141.67V223.031C141.67 223.359 141.752 223.604 141.916 223.764C142.08 223.924 142.297 224.004 142.566 224.004ZM150.629 225.117C150.016 225.117 149.484 224.998 149.035 224.76C148.586 224.521 148.24 224.156 147.998 223.664C147.756 223.172 147.635 222.547 147.635 221.789C147.635 221 147.768 220.355 148.033 219.855C148.299 219.355 148.666 218.986 149.135 218.748C149.607 218.51 150.148 218.391 150.758 218.391C151.145 218.391 151.494 218.43 151.807 218.508C152.123 218.582 152.391 218.674 152.609 218.783L152.199 219.885C151.961 219.787 151.717 219.705 151.467 219.639C151.217 219.572 150.977 219.539 150.746 219.539C150.367 219.539 150.051 219.623 149.797 219.791C149.547 219.959 149.359 220.209 149.234 220.541C149.113 220.873 149.053 221.285 149.053 221.777C149.053 222.254 149.115 222.656 149.24 222.984C149.365 223.309 149.551 223.555 149.797 223.723C150.043 223.887 150.346 223.969 150.705 223.969C151.061 223.969 151.379 223.926 151.66 223.84C151.941 223.754 152.207 223.643 152.457 223.506V224.701C152.211 224.842 151.947 224.945 151.666 225.012C151.385 225.082 151.039 225.117 150.629 225.117ZM155.363 225H153.98V215.883H155.363V225ZM159.875 218.391C160.695 218.391 161.314 218.572 161.732 218.936C162.154 219.299 162.365 219.865 162.365 220.635V225H161.387L161.123 224.08H161.076C160.893 224.314 160.703 224.508 160.508 224.66C160.312 224.812 160.086 224.926 159.828 225C159.574 225.078 159.264 225.117 158.896 225.117C158.51 225.117 158.164 225.047 157.859 224.906C157.555 224.762 157.314 224.543 157.139 224.25C156.963 223.957 156.875 223.586 156.875 223.137C156.875 222.469 157.123 221.967 157.619 221.631C158.119 221.295 158.873 221.109 159.881 221.074L161.006 221.033V220.693C161.006 220.244 160.9 219.924 160.689 219.732C160.482 219.541 160.189 219.445 159.811 219.445C159.486 219.445 159.172 219.492 158.867 219.586C158.562 219.68 158.266 219.795 157.977 219.932L157.531 218.959C157.848 218.791 158.207 218.654 158.609 218.549C159.016 218.443 159.438 218.391 159.875 218.391ZM161 221.9L160.162 221.93C159.475 221.953 158.992 222.07 158.715 222.281C158.438 222.492 158.299 222.781 158.299 223.148C158.299 223.469 158.395 223.703 158.586 223.852C158.777 223.996 159.029 224.068 159.342 224.068C159.818 224.068 160.213 223.934 160.525 223.664C160.842 223.391 161 222.99 161 222.463V221.9ZM167.58 218.391C167.689 218.391 167.809 218.396 167.938 218.408C168.066 218.42 168.178 218.436 168.271 218.455L168.143 219.744C168.061 219.721 167.959 219.703 167.838 219.691C167.721 219.68 167.615 219.674 167.521 219.674C167.275 219.674 167.041 219.715 166.818 219.797C166.596 219.875 166.398 219.996 166.227 220.16C166.055 220.32 165.92 220.521 165.822 220.764C165.725 221.006 165.676 221.287 165.676 221.607V225H164.293V218.514H165.371L165.559 219.656H165.623C165.752 219.426 165.912 219.215 166.104 219.023C166.295 218.832 166.514 218.68 166.76 218.566C167.01 218.449 167.283 218.391 167.58 218.391ZM170.85 218.514V225H169.473V218.514H170.85ZM170.17 216.029C170.381 216.029 170.562 216.086 170.715 216.199C170.871 216.312 170.949 216.508 170.949 216.785C170.949 217.059 170.871 217.254 170.715 217.371C170.562 217.484 170.381 217.541 170.17 217.541C169.951 217.541 169.766 217.484 169.613 217.371C169.465 217.254 169.391 217.059 169.391 216.785C169.391 216.508 169.465 216.312 169.613 216.199C169.766 216.086 169.951 216.029 170.17 216.029ZM175.238 224.004C175.418 224.004 175.596 223.988 175.771 223.957C175.947 223.922 176.107 223.881 176.252 223.834V224.877C176.1 224.943 175.902 225 175.66 225.047C175.418 225.094 175.166 225.117 174.904 225.117C174.537 225.117 174.207 225.057 173.914 224.936C173.621 224.811 173.389 224.598 173.217 224.297C173.045 223.996 172.959 223.58 172.959 223.049V219.562H172.074V218.947L173.023 218.461L173.475 217.072H174.342V218.514H176.199V219.562H174.342V223.031C174.342 223.359 174.424 223.604 174.588 223.764C174.752 223.924 174.969 224.004 175.238 224.004ZM176.592 218.514H178.092L179.422 222.217C179.48 222.385 179.533 222.551 179.58 222.715C179.631 222.875 179.674 223.033 179.709 223.189C179.748 223.346 179.779 223.502 179.803 223.658H179.838C179.877 223.455 179.932 223.229 180.002 222.979C180.076 222.725 180.158 222.471 180.248 222.217L181.525 218.514H183.008L180.225 225.891C180.064 226.312 179.867 226.672 179.633 226.969C179.402 227.27 179.129 227.496 178.812 227.648C178.496 227.805 178.135 227.883 177.729 227.883C177.533 227.883 177.363 227.871 177.219 227.848C177.074 227.828 176.951 227.807 176.85 227.783V226.682C176.932 226.701 177.035 226.719 177.16 226.734C177.285 226.75 177.414 226.758 177.547 226.758C177.793 226.758 178.006 226.709 178.186 226.611C178.365 226.514 178.518 226.375 178.643 226.195C178.768 226.02 178.871 225.818 178.953 225.592L179.182 224.982L176.592 218.514ZM192.852 221.742C192.852 222.281 192.781 222.76 192.641 223.178C192.5 223.596 192.295 223.949 192.025 224.238C191.756 224.523 191.432 224.742 191.053 224.895C190.674 225.043 190.246 225.117 189.77 225.117C189.324 225.117 188.916 225.043 188.545 224.895C188.174 224.742 187.852 224.523 187.578 224.238C187.309 223.949 187.1 223.596 186.951 223.178C186.803 222.76 186.729 222.281 186.729 221.742C186.729 221.027 186.852 220.422 187.098 219.926C187.348 219.426 187.703 219.045 188.164 218.783C188.625 218.521 189.174 218.391 189.811 218.391C190.408 218.391 190.936 218.521 191.393 218.783C191.85 219.045 192.207 219.426 192.465 219.926C192.723 220.426 192.852 221.031 192.852 221.742ZM188.146 221.742C188.146 222.215 188.203 222.619 188.316 222.955C188.434 223.291 188.613 223.549 188.855 223.729C189.098 223.904 189.41 223.992 189.793 223.992C190.176 223.992 190.488 223.904 190.73 223.729C190.973 223.549 191.15 223.291 191.264 222.955C191.377 222.619 191.434 222.215 191.434 221.742C191.434 221.27 191.377 220.869 191.264 220.541C191.15 220.209 190.973 219.957 190.73 219.785C190.488 219.609 190.174 219.521 189.787 219.521C189.217 219.521 188.801 219.713 188.539 220.096C188.277 220.479 188.146 221.027 188.146 221.742ZM197.814 218.391C198.545 218.391 199.113 218.58 199.52 218.959C199.93 219.334 200.135 219.938 200.135 220.77V225H198.758V221.027C198.758 220.523 198.654 220.146 198.447 219.896C198.24 219.643 197.92 219.516 197.486 219.516C196.857 219.516 196.42 219.709 196.174 220.096C195.932 220.482 195.811 221.043 195.811 221.777V225H194.434V218.514H195.506L195.699 219.393H195.775C195.916 219.166 196.09 218.98 196.297 218.836C196.508 218.688 196.742 218.576 197 218.502C197.262 218.428 197.533 218.391 197.814 218.391ZM204.201 218.514H205.701L207.031 222.217C207.09 222.385 207.143 222.551 207.189 222.715C207.24 222.875 207.283 223.033 207.318 223.189C207.357 223.346 207.389 223.502 207.412 223.658H207.447C207.486 223.455 207.541 223.229 207.611 222.979C207.686 222.725 207.768 222.471 207.857 222.217L209.135 218.514H210.617L207.834 225.891C207.674 226.312 207.477 226.672 207.242 226.969C207.012 227.27 206.738 227.496 206.422 227.648C206.105 227.805 205.744 227.883 205.338 227.883C205.143 227.883 204.973 227.871 204.828 227.848C204.684 227.828 204.561 227.807 204.459 227.783V226.682C204.541 226.701 204.645 226.719 204.77 226.734C204.895 226.75 205.023 226.758 205.156 226.758C205.402 226.758 205.615 226.709 205.795 226.611C205.975 226.514 206.127 226.375 206.252 226.195C206.377 226.02 206.48 225.818 206.562 225.592L206.791 224.982L204.201 218.514ZM217.344 221.742C217.344 222.281 217.273 222.76 217.133 223.178C216.992 223.596 216.787 223.949 216.518 224.238C216.248 224.523 215.924 224.742 215.545 224.895C215.166 225.043 214.738 225.117 214.262 225.117C213.816 225.117 213.408 225.043 213.037 224.895C212.666 224.742 212.344 224.523 212.07 224.238C211.801 223.949 211.592 223.596 211.443 223.178C211.295 222.76 211.221 222.281 211.221 221.742C211.221 221.027 211.344 220.422 211.59 219.926C211.84 219.426 212.195 219.045 212.656 218.783C213.117 218.521 213.666 218.391 214.303 218.391C214.9 218.391 215.428 218.521 215.885 218.783C216.342 219.045 216.699 219.426 216.957 219.926C217.215 220.426 217.344 221.031 217.344 221.742ZM212.639 221.742C212.639 222.215 212.695 222.619 212.809 222.955C212.926 223.291 213.105 223.549 213.348 223.729C213.59 223.904 213.902 223.992 214.285 223.992C214.668 223.992 214.98 223.904 215.223 223.729C215.465 223.549 215.643 223.291 215.756 222.955C215.869 222.619 215.926 222.215 215.926 221.742C215.926 221.27 215.869 220.869 215.756 220.541C215.643 220.209 215.465 219.957 215.223 219.785C214.98 219.609 214.666 219.521 214.279 219.521C213.709 219.521 213.293 219.713 213.031 220.096C212.77 220.479 212.639 221.027 212.639 221.742ZM224.58 218.514V225H223.496L223.309 224.127H223.232C223.096 224.35 222.922 224.535 222.711 224.684C222.5 224.828 222.266 224.936 222.008 225.006C221.75 225.08 221.479 225.117 221.193 225.117C220.705 225.117 220.287 225.035 219.939 224.871C219.596 224.703 219.332 224.445 219.148 224.098C218.965 223.75 218.873 223.301 218.873 222.75V218.514H220.256V222.492C220.256 222.996 220.357 223.373 220.561 223.623C220.768 223.873 221.088 223.998 221.521 223.998C221.939 223.998 222.271 223.912 222.518 223.74C222.764 223.568 222.938 223.314 223.039 222.979C223.145 222.643 223.197 222.23 223.197 221.742V218.514H224.58ZM229.842 218.391C229.951 218.391 230.07 218.396 230.199 218.408C230.328 218.42 230.439 218.436 230.533 218.455L230.404 219.744C230.322 219.721 230.221 219.703 230.1 219.691C229.982 219.68 229.877 219.674 229.783 219.674C229.537 219.674 229.303 219.715 229.08 219.797C228.857 219.875 228.66 219.996 228.488 220.16C228.316 220.32 228.182 220.521 228.084 220.764C227.986 221.006 227.938 221.287 227.938 221.607V225H226.555V218.514H227.633L227.82 219.656H227.885C228.014 219.426 228.174 219.215 228.365 219.023C228.557 218.832 228.775 218.68 229.021 218.566C229.271 218.449 229.545 218.391 229.842 218.391ZM242.182 218.391C242.908 218.391 243.455 218.578 243.822 218.953C244.193 219.328 244.379 219.93 244.379 220.758V225H243.002V221.004C243.002 220.512 242.906 220.141 242.715 219.891C242.523 219.641 242.232 219.516 241.842 219.516C241.295 219.516 240.9 219.691 240.658 220.043C240.42 220.391 240.301 220.896 240.301 221.561V225H238.924V221.004C238.924 220.676 238.881 220.402 238.795 220.184C238.713 219.961 238.586 219.795 238.414 219.686C238.242 219.572 238.025 219.516 237.764 219.516C237.385 219.516 237.082 219.602 236.855 219.773C236.633 219.945 236.473 220.199 236.375 220.535C236.277 220.867 236.229 221.275 236.229 221.76V225H234.852V218.514H235.924L236.117 219.387H236.193C236.326 219.16 236.49 218.975 236.686 218.83C236.885 218.682 237.105 218.572 237.348 218.502C237.59 218.428 237.842 218.391 238.104 218.391C238.588 218.391 238.996 218.477 239.328 218.648C239.66 218.816 239.908 219.074 240.072 219.422H240.178C240.381 219.07 240.664 218.811 241.027 218.643C241.391 218.475 241.775 218.391 242.182 218.391ZM252.043 221.742C252.043 222.281 251.973 222.76 251.832 223.178C251.691 223.596 251.486 223.949 251.217 224.238C250.947 224.523 250.623 224.742 250.244 224.895C249.865 225.043 249.438 225.117 248.961 225.117C248.516 225.117 248.107 225.043 247.736 224.895C247.365 224.742 247.043 224.523 246.77 224.238C246.5 223.949 246.291 223.596 246.143 223.178C245.994 222.76 245.92 222.281 245.92 221.742C245.92 221.027 246.043 220.422 246.289 219.926C246.539 219.426 246.895 219.045 247.355 218.783C247.816 218.521 248.365 218.391 249.002 218.391C249.6 218.391 250.127 218.521 250.584 218.783C251.041 219.045 251.398 219.426 251.656 219.926C251.914 220.426 252.043 221.031 252.043 221.742ZM247.338 221.742C247.338 222.215 247.395 222.619 247.508 222.955C247.625 223.291 247.805 223.549 248.047 223.729C248.289 223.904 248.602 223.992 248.984 223.992C249.367 223.992 249.68 223.904 249.922 223.729C250.164 223.549 250.342 223.291 250.455 222.955C250.568 222.619 250.625 222.215 250.625 221.742C250.625 221.27 250.568 220.869 250.455 220.541C250.342 220.209 250.164 219.957 249.922 219.785C249.68 219.609 249.365 219.521 248.979 219.521C248.408 219.521 247.992 219.713 247.73 220.096C247.469 220.479 247.338 221.027 247.338 221.742ZM259.367 221.742C259.367 222.281 259.297 222.76 259.156 223.178C259.016 223.596 258.811 223.949 258.541 224.238C258.271 224.523 257.947 224.742 257.568 224.895C257.189 225.043 256.762 225.117 256.285 225.117C255.84 225.117 255.432 225.043 255.061 224.895C254.689 224.742 254.367 224.523 254.094 224.238C253.824 223.949 253.615 223.596 253.467 223.178C253.318 222.76 253.244 222.281 253.244 221.742C253.244 221.027 253.367 220.422 253.613 219.926C253.863 219.426 254.219 219.045 254.68 218.783C255.141 218.521 255.689 218.391 256.326 218.391C256.924 218.391 257.451 218.521 257.908 218.783C258.365 219.045 258.723 219.426 258.98 219.926C259.238 220.426 259.367 221.031 259.367 221.742ZM254.662 221.742C254.662 222.215 254.719 222.619 254.832 222.955C254.949 223.291 255.129 223.549 255.371 223.729C255.613 223.904 255.926 223.992 256.309 223.992C256.691 223.992 257.004 223.904 257.246 223.729C257.488 223.549 257.666 223.291 257.779 222.955C257.893 222.619 257.949 222.215 257.949 221.742C257.949 221.27 257.893 220.869 257.779 220.541C257.666 220.209 257.488 219.957 257.246 219.785C257.004 219.609 256.689 219.521 256.303 219.521C255.732 219.521 255.316 219.713 255.055 220.096C254.793 220.479 254.662 221.027 254.662 221.742ZM263.129 225.117C262.355 225.117 261.734 224.836 261.266 224.273C260.801 223.707 260.568 222.873 260.568 221.771C260.568 220.658 260.805 219.816 261.277 219.246C261.754 218.676 262.381 218.391 263.158 218.391C263.486 218.391 263.773 218.436 264.02 218.525C264.266 218.611 264.477 218.729 264.652 218.877C264.832 219.025 264.984 219.191 265.109 219.375H265.174C265.154 219.254 265.131 219.08 265.104 218.854C265.08 218.623 265.068 218.41 265.068 218.215V215.883H266.451V225H265.373L265.127 224.115H265.068C264.951 224.303 264.803 224.473 264.623 224.625C264.447 224.773 264.236 224.893 263.99 224.982C263.748 225.072 263.461 225.117 263.129 225.117ZM263.516 223.998C264.105 223.998 264.521 223.828 264.764 223.488C265.006 223.148 265.131 222.639 265.139 221.959V221.777C265.139 221.051 265.021 220.494 264.787 220.107C264.553 219.717 264.125 219.521 263.504 219.521C263.008 219.521 262.629 219.723 262.367 220.125C262.109 220.523 261.98 221.08 261.98 221.795C261.98 222.51 262.109 223.057 262.367 223.436C262.629 223.811 263.012 223.998 263.516 223.998ZM269.814 223.605L269.896 223.74C269.826 224.021 269.736 224.324 269.627 224.648C269.518 224.973 269.398 225.297 269.27 225.621C269.141 225.949 269.01 226.258 268.877 226.547H267.869C267.951 226.23 268.029 225.898 268.104 225.551C268.182 225.207 268.252 224.867 268.314 224.531C268.381 224.191 268.434 223.883 268.473 223.605H269.814ZM109.186 241.148C109.186 241.574 109.082 241.934 108.875 242.227C108.668 242.52 108.365 242.742 107.967 242.895C107.572 243.043 107.088 243.117 106.514 243.117C106.061 243.117 105.67 243.084 105.342 243.018C105.018 242.955 104.711 242.857 104.422 242.725V241.535C104.73 241.68 105.076 241.805 105.459 241.91C105.846 242.016 106.211 242.068 106.555 242.068C107.008 242.068 107.334 241.998 107.533 241.857C107.732 241.713 107.832 241.521 107.832 241.283C107.832 241.143 107.791 241.018 107.709 240.908C107.631 240.795 107.482 240.68 107.264 240.562C107.049 240.441 106.732 240.297 106.314 240.129C105.904 239.965 105.559 239.801 105.277 239.637C104.996 239.473 104.783 239.275 104.639 239.045C104.494 238.811 104.422 238.512 104.422 238.148C104.422 237.574 104.648 237.139 105.102 236.842C105.559 236.541 106.162 236.391 106.912 236.391C107.311 236.391 107.686 236.432 108.037 236.514C108.393 236.592 108.74 236.707 109.08 236.859L108.646 237.896C108.354 237.768 108.059 237.662 107.762 237.58C107.469 237.494 107.17 237.451 106.865 237.451C106.51 237.451 106.238 237.506 106.051 237.615C105.867 237.725 105.775 237.881 105.775 238.084C105.775 238.236 105.82 238.365 105.91 238.471C106 238.576 106.154 238.682 106.373 238.787C106.596 238.893 106.904 239.023 107.299 239.18C107.686 239.328 108.02 239.484 108.301 239.648C108.586 239.809 108.805 240.006 108.957 240.24C109.109 240.475 109.186 240.777 109.186 241.148ZM113.088 242.004C113.268 242.004 113.445 241.988 113.621 241.957C113.797 241.922 113.957 241.881 114.102 241.834V242.877C113.949 242.943 113.752 243 113.51 243.047C113.268 243.094 113.016 243.117 112.754 243.117C112.387 243.117 112.057 243.057 111.764 242.936C111.471 242.811 111.238 242.598 111.066 242.297C110.895 241.996 110.809 241.58 110.809 241.049V237.562H109.924V236.947L110.873 236.461L111.324 235.072H112.191V236.514H114.049V237.562H112.191V241.031C112.191 241.359 112.273 241.604 112.438 241.764C112.602 241.924 112.818 242.004 113.088 242.004ZM118.707 236.391C118.816 236.391 118.936 236.396 119.064 236.408C119.193 236.42 119.305 236.436 119.398 236.455L119.27 237.744C119.188 237.721 119.086 237.703 118.965 237.691C118.848 237.68 118.742 237.674 118.648 237.674C118.402 237.674 118.168 237.715 117.945 237.797C117.723 237.875 117.525 237.996 117.354 238.16C117.182 238.32 117.047 238.521 116.949 238.764C116.852 239.006 116.803 239.287 116.803 239.607V243H115.42V236.514H116.498L116.686 237.656H116.75C116.879 237.426 117.039 237.215 117.23 237.023C117.422 236.832 117.641 236.68 117.887 236.566C118.137 236.449 118.41 236.391 118.707 236.391ZM123.184 236.391C123.762 236.391 124.258 236.51 124.672 236.748C125.086 236.986 125.404 237.324 125.627 237.762C125.85 238.199 125.961 238.723 125.961 239.332V240.07H121.631C121.646 240.699 121.814 241.184 122.135 241.523C122.459 241.863 122.912 242.033 123.494 242.033C123.908 242.033 124.279 241.994 124.607 241.916C124.939 241.834 125.281 241.715 125.633 241.559V242.678C125.309 242.83 124.979 242.941 124.643 243.012C124.307 243.082 123.904 243.117 123.436 243.117C122.799 243.117 122.238 242.994 121.754 242.748C121.273 242.498 120.896 242.127 120.623 241.635C120.354 241.143 120.219 240.531 120.219 239.801C120.219 239.074 120.342 238.457 120.588 237.949C120.834 237.441 121.18 237.055 121.625 236.789C122.07 236.523 122.59 236.391 123.184 236.391ZM123.184 237.428C122.75 237.428 122.398 237.568 122.129 237.85C121.863 238.131 121.707 238.543 121.66 239.086H124.613C124.609 238.762 124.555 238.475 124.449 238.225C124.348 237.975 124.191 237.779 123.98 237.639C123.773 237.498 123.508 237.428 123.184 237.428ZM131.873 241.148C131.873 241.574 131.77 241.934 131.562 242.227C131.355 242.52 131.053 242.742 130.654 242.895C130.26 243.043 129.775 243.117 129.201 243.117C128.748 243.117 128.357 243.084 128.029 243.018C127.705 242.955 127.398 242.857 127.109 242.725V241.535C127.418 241.68 127.764 241.805 128.146 241.91C128.533 242.016 128.898 242.068 129.242 242.068C129.695 242.068 130.021 241.998 130.221 241.857C130.42 241.713 130.52 241.521 130.52 241.283C130.52 241.143 130.479 241.018 130.396 240.908C130.318 240.795 130.17 240.68 129.951 240.562C129.736 240.441 129.42 240.297 129.002 240.129C128.592 239.965 128.246 239.801 127.965 239.637C127.684 239.473 127.471 239.275 127.326 239.045C127.182 238.811 127.109 238.512 127.109 238.148C127.109 237.574 127.336 237.139 127.789 236.842C128.246 236.541 128.85 236.391 129.6 236.391C129.998 236.391 130.373 236.432 130.725 236.514C131.08 236.592 131.428 236.707 131.768 236.859L131.334 237.896C131.041 237.768 130.746 237.662 130.449 237.58C130.156 237.494 129.857 237.451 129.553 237.451C129.197 237.451 128.926 237.506 128.738 237.615C128.555 237.725 128.463 237.881 128.463 238.084C128.463 238.236 128.508 238.365 128.598 238.471C128.688 238.576 128.842 238.682 129.061 238.787C129.283 238.893 129.592 239.023 129.986 239.18C130.373 239.328 130.707 239.484 130.988 239.648C131.273 239.809 131.492 240.006 131.645 240.24C131.797 240.475 131.873 240.777 131.873 241.148ZM137.721 241.148C137.721 241.574 137.617 241.934 137.41 242.227C137.203 242.52 136.9 242.742 136.502 242.895C136.107 243.043 135.623 243.117 135.049 243.117C134.596 243.117 134.205 243.084 133.877 243.018C133.553 242.955 133.246 242.857 132.957 242.725V241.535C133.266 241.68 133.611 241.805 133.994 241.91C134.381 242.016 134.746 242.068 135.09 242.068C135.543 242.068 135.869 241.998 136.068 241.857C136.268 241.713 136.367 241.521 136.367 241.283C136.367 241.143 136.326 241.018 136.244 240.908C136.166 240.795 136.018 240.68 135.799 240.562C135.584 240.441 135.268 240.297 134.85 240.129C134.439 239.965 134.094 239.801 133.812 239.637C133.531 239.473 133.318 239.275 133.174 239.045C133.029 238.811 132.957 238.512 132.957 238.148C132.957 237.574 133.184 237.139 133.637 236.842C134.094 236.541 134.697 236.391 135.447 236.391C135.846 236.391 136.221 236.432 136.572 236.514C136.928 236.592 137.275 236.707 137.615 236.859L137.182 237.896C136.889 237.768 136.594 237.662 136.297 237.58C136.004 237.494 135.705 237.451 135.4 237.451C135.045 237.451 134.773 237.506 134.586 237.615C134.402 237.725 134.311 237.881 134.311 238.084C134.311 238.236 134.355 238.365 134.445 238.471C134.535 238.576 134.689 238.682 134.908 238.787C135.131 238.893 135.439 239.023 135.834 239.18C136.221 239.328 136.555 239.484 136.836 239.648C137.121 239.809 137.34 240.006 137.492 240.24C137.645 240.475 137.721 240.777 137.721 241.148ZM140.598 241.605L140.68 241.74C140.609 242.021 140.52 242.324 140.41 242.648C140.301 242.973 140.182 243.297 140.053 243.621C139.924 243.949 139.793 244.258 139.66 244.547H138.652C138.734 244.23 138.812 243.898 138.887 243.551C138.965 243.207 139.035 242.867 139.098 242.531C139.164 242.191 139.217 241.883 139.256 241.605H140.598ZM151.338 239.742C151.338 240.281 151.268 240.76 151.127 241.178C150.986 241.596 150.781 241.949 150.512 242.238C150.242 242.523 149.918 242.742 149.539 242.895C149.16 243.043 148.732 243.117 148.256 243.117C147.811 243.117 147.402 243.043 147.031 242.895C146.66 242.742 146.338 242.523 146.064 242.238C145.795 241.949 145.586 241.596 145.438 241.178C145.289 240.76 145.215 240.281 145.215 239.742C145.215 239.027 145.338 238.422 145.584 237.926C145.834 237.426 146.189 237.045 146.65 236.783C147.111 236.521 147.66 236.391 148.297 236.391C148.895 236.391 149.422 236.521 149.879 236.783C150.336 237.045 150.693 237.426 150.951 237.926C151.209 238.426 151.338 239.031 151.338 239.742ZM146.633 239.742C146.633 240.215 146.689 240.619 146.803 240.955C146.92 241.291 147.1 241.549 147.342 241.729C147.584 241.904 147.896 241.992 148.279 241.992C148.662 241.992 148.975 241.904 149.217 241.729C149.459 241.549 149.637 241.291 149.75 240.955C149.863 240.619 149.92 240.215 149.92 239.742C149.92 239.27 149.863 238.869 149.75 238.541C149.637 238.209 149.459 237.957 149.217 237.785C148.975 237.609 148.66 237.521 148.273 237.521C147.703 237.521 147.287 237.713 147.025 238.096C146.764 238.479 146.633 239.027 146.633 239.742ZM156.207 236.391C156.316 236.391 156.436 236.396 156.564 236.408C156.693 236.42 156.805 236.436 156.898 236.455L156.77 237.744C156.688 237.721 156.586 237.703 156.465 237.691C156.348 237.68 156.242 237.674 156.148 237.674C155.902 237.674 155.668 237.715 155.445 237.797C155.223 237.875 155.025 237.996 154.854 238.16C154.682 238.32 154.547 238.521 154.449 238.764C154.352 239.006 154.303 239.287 154.303 239.607V243H152.92V236.514H153.998L154.186 237.656H154.25C154.379 237.426 154.539 237.215 154.73 237.023C154.922 236.832 155.141 236.68 155.387 236.566C155.637 236.449 155.91 236.391 156.207 236.391ZM163.76 236.391C164.58 236.391 165.199 236.572 165.617 236.936C166.039 237.299 166.25 237.865 166.25 238.635V243H165.271L165.008 242.08H164.961C164.777 242.314 164.588 242.508 164.393 242.66C164.197 242.812 163.971 242.926 163.713 243C163.459 243.078 163.148 243.117 162.781 243.117C162.395 243.117 162.049 243.047 161.744 242.906C161.439 242.762 161.199 242.543 161.023 242.25C160.848 241.957 160.76 241.586 160.76 241.137C160.76 240.469 161.008 239.967 161.504 239.631C162.004 239.295 162.758 239.109 163.766 239.074L164.891 239.033V238.693C164.891 238.244 164.785 237.924 164.574 237.732C164.367 237.541 164.074 237.445 163.695 237.445C163.371 237.445 163.057 237.492 162.752 237.586C162.447 237.68 162.15 237.795 161.861 237.932L161.416 236.959C161.732 236.791 162.092 236.654 162.494 236.549C162.9 236.443 163.322 236.391 163.76 236.391ZM164.885 239.9L164.047 239.93C163.359 239.953 162.877 240.07 162.6 240.281C162.322 240.492 162.184 240.781 162.184 241.148C162.184 241.469 162.279 241.703 162.471 241.852C162.662 241.996 162.914 242.068 163.227 242.068C163.703 242.068 164.098 241.934 164.41 241.664C164.727 241.391 164.885 240.99 164.885 240.463V239.9ZM171.559 236.391C172.289 236.391 172.857 236.58 173.264 236.959C173.674 237.334 173.879 237.938 173.879 238.77V243H172.502V239.027C172.502 238.523 172.398 238.146 172.191 237.896C171.984 237.643 171.664 237.516 171.23 237.516C170.602 237.516 170.164 237.709 169.918 238.096C169.676 238.482 169.555 239.043 169.555 239.777V243H168.178V236.514H169.25L169.443 237.393H169.52C169.66 237.166 169.834 236.98 170.041 236.836C170.252 236.688 170.486 236.576 170.744 236.502C171.006 236.428 171.277 236.391 171.559 236.391ZM177.242 239.684L175.074 236.514H176.645L178.127 238.793L179.615 236.514H181.18L179 239.684L181.291 243H179.715L178.127 240.568L176.533 243H174.969L177.242 239.684ZM183.793 236.514V243H182.416V236.514H183.793ZM183.113 234.029C183.324 234.029 183.506 234.086 183.658 234.199C183.814 234.312 183.893 234.508 183.893 234.785C183.893 235.059 183.814 235.254 183.658 235.371C183.506 235.484 183.324 235.541 183.113 235.541C182.895 235.541 182.709 235.484 182.557 235.371C182.408 235.254 182.334 235.059 182.334 234.785C182.334 234.508 182.408 234.312 182.557 234.199C182.709 234.086 182.895 234.029 183.113 234.029ZM188.352 236.391C188.93 236.391 189.426 236.51 189.84 236.748C190.254 236.986 190.572 237.324 190.795 237.762C191.018 238.199 191.129 238.723 191.129 239.332V240.07H186.799C186.814 240.699 186.982 241.184 187.303 241.523C187.627 241.863 188.08 242.033 188.662 242.033C189.076 242.033 189.447 241.994 189.775 241.916C190.107 241.834 190.449 241.715 190.801 241.559V242.678C190.477 242.83 190.146 242.941 189.811 243.012C189.475 243.082 189.072 243.117 188.604 243.117C187.967 243.117 187.406 242.994 186.922 242.748C186.441 242.498 186.064 242.127 185.791 241.635C185.521 241.143 185.387 240.531 185.387 239.801C185.387 239.074 185.51 238.457 185.756 237.949C186.002 237.441 186.348 237.055 186.793 236.789C187.238 236.523 187.758 236.391 188.352 236.391ZM188.352 237.428C187.918 237.428 187.566 237.568 187.297 237.85C187.031 238.131 186.875 238.543 186.828 239.086H189.781C189.777 238.762 189.723 238.475 189.617 238.225C189.516 237.975 189.359 237.779 189.148 237.639C188.941 237.498 188.676 237.428 188.352 237.428ZM195.096 242.004C195.275 242.004 195.453 241.988 195.629 241.957C195.805 241.922 195.965 241.881 196.109 241.834V242.877C195.957 242.943 195.76 243 195.518 243.047C195.275 243.094 195.023 243.117 194.762 243.117C194.395 243.117 194.064 243.057 193.771 242.936C193.479 242.811 193.246 242.598 193.074 242.297C192.902 241.996 192.816 241.58 192.816 241.049V237.562H191.932V236.947L192.881 236.461L193.332 235.072H194.199V236.514H196.057V237.562H194.199V241.031C194.199 241.359 194.281 241.604 194.445 241.764C194.609 241.924 194.826 242.004 195.096 242.004ZM196.449 236.514H197.949L199.279 240.217C199.338 240.385 199.391 240.551 199.438 240.715C199.488 240.875 199.531 241.033 199.566 241.189C199.605 241.346 199.637 241.502 199.66 241.658H199.695C199.734 241.455 199.789 241.229 199.859 240.979C199.934 240.725 200.016 240.471 200.105 240.217L201.383 236.514H202.865L200.082 243.891C199.922 244.312 199.725 244.672 199.49 244.969C199.26 245.27 198.986 245.496 198.67 245.648C198.354 245.805 197.992 245.883 197.586 245.883C197.391 245.883 197.221 245.871 197.076 245.848C196.932 245.828 196.809 245.807 196.707 245.783V244.682C196.789 244.701 196.893 244.719 197.018 244.734C197.143 244.75 197.271 244.758 197.404 244.758C197.65 244.758 197.863 244.709 198.043 244.611C198.223 244.514 198.375 244.375 198.5 244.195C198.625 244.02 198.729 243.818 198.811 243.592L199.039 242.982L196.449 236.514ZM203.65 242.273C203.65 241.953 203.732 241.729 203.896 241.6C204.064 241.467 204.268 241.4 204.506 241.4C204.744 241.4 204.947 241.467 205.115 241.6C205.287 241.729 205.373 241.953 205.373 242.273C205.373 242.586 205.287 242.812 205.115 242.953C204.947 243.09 204.744 243.158 204.506 243.158C204.268 243.158 204.064 243.09 203.896 242.953C203.732 242.812 203.65 242.586 203.65 242.273Z" fill="#1F160F" fill-opacity="0.64"/>
<path d="M111.194 181.195C110.464 181.195 109.784 181.052 109.154 180.767C108.529 180.482 107.982 180.09 107.512 179.59C107.047 179.085 106.684 178.502 106.424 177.842C106.164 177.182 106.034 176.48 106.034 175.735C106.034 174.935 106.177 174.205 106.462 173.545C106.747 172.885 107.134 172.315 107.624 171.835C108.114 171.35 108.669 170.977 109.289 170.717C109.914 170.452 110.564 170.32 111.239 170.32C111.979 170.32 112.704 170.492 113.414 170.837C114.124 171.182 114.759 171.73 115.319 172.48L113.474 173.47C113.154 173.1 112.797 172.825 112.402 172.645C112.012 172.465 111.614 172.375 111.209 172.375C110.804 172.375 110.414 172.457 110.039 172.622C109.669 172.787 109.339 173.022 109.049 173.327C108.759 173.632 108.529 173.992 108.359 174.407C108.189 174.822 108.104 175.28 108.104 175.78C108.104 176.245 108.184 176.68 108.344 177.085C108.509 177.49 108.734 177.845 109.019 178.15C109.304 178.455 109.634 178.695 110.009 178.87C110.389 179.04 110.794 179.125 111.224 179.125C111.489 179.125 111.749 179.087 112.004 179.012C112.264 178.932 112.512 178.817 112.747 178.667C112.982 178.517 113.197 178.33 113.392 178.105C113.592 177.88 113.767 177.62 113.917 177.325H112.289V175.525H116.354C116.384 176.3 116.272 177.03 116.017 177.715C115.762 178.4 115.397 179.005 114.922 179.53C114.447 180.05 113.892 180.457 113.257 180.753C112.622 181.048 111.934 181.195 111.194 181.195ZM122.023 170.5H124.378L128.188 181H125.99L125.36 179.26H121.04L120.41 181H118.213L122.023 170.5ZM121.798 177.19H124.603L123.193 173.342L121.798 177.19ZM130.589 181L132.629 170.5H134.376L136.814 176.927L139.259 170.5H141.006L143.046 181H140.931L139.769 174.977L137.526 180.895H136.101L133.866 174.977L132.696 181H130.589ZM146.049 181V170.5H152.694V172.57H148.119V174.34H151.689V176.41H148.119V178.93H152.694V181H146.049ZM160.943 181V170.5H163.178L167.273 177.257V170.5H169.343V181H167.108L163.013 174.242V181H160.943ZM176.149 170.5H178.504L182.314 181H180.116L179.486 179.26H175.166L174.536 181H172.339L176.149 170.5ZM175.924 177.19H178.729L177.319 173.342L175.924 177.19ZM184.715 181L186.755 170.5H188.502L190.94 176.927L193.385 170.5H195.132L197.172 181H195.057L193.895 174.977L191.652 180.895H190.227L187.992 174.977L186.822 181H184.715ZM200.175 181V170.5H206.82V172.57H202.245V174.34H205.815V176.41H202.245V178.93H206.82V181H200.175Z" fill="#450BC8"/>
<path d="M49.84 265.13C49.3667 265.13 48.9217 265.037 48.505 264.85C48.0883 264.66 47.7217 264.398 47.405 264.065C47.0917 263.732 46.845 263.347 46.665 262.91C46.4883 262.47 46.4 262 46.4 261.5C46.4 260.997 46.4883 260.527 46.665 260.09C46.845 259.65 47.0917 259.265 47.405 258.935C47.7217 258.602 48.0883 258.342 48.505 258.155C48.9217 257.965 49.3667 257.87 49.84 257.87C50.4067 257.87 50.9283 258.002 51.405 258.265C51.8817 258.525 52.2767 258.873 52.59 259.31L51.36 259.975C51.1733 259.755 50.9483 259.58 50.685 259.45C50.4217 259.317 50.14 259.25 49.84 259.25C49.5567 259.25 49.29 259.308 49.04 259.425C48.79 259.542 48.57 259.703 48.38 259.91C48.1933 260.117 48.0467 260.355 47.94 260.625C47.8333 260.895 47.78 261.187 47.78 261.5C47.78 261.81 47.8333 262.102 47.94 262.375C48.0467 262.645 48.1933 262.883 48.38 263.09C48.57 263.293 48.79 263.455 49.04 263.575C49.29 263.692 49.5567 263.75 49.84 263.75C50.1433 263.75 50.425 263.683 50.685 263.55C50.9483 263.417 51.1733 263.24 51.36 263.02L52.59 263.69C52.2767 264.123 51.8817 264.472 51.405 264.735C50.9283 264.998 50.4067 265.13 49.84 265.13ZM56.6685 258H58.2385L60.7785 265H59.3135L58.8935 263.84H56.0135L55.5935 265H54.1285L56.6685 258ZM56.5185 262.46H58.3885L57.4485 259.895L56.5185 262.46ZM67.0934 258V259.38H65.0334V265H63.6534V259.38H61.5934V258H67.0934ZM69.0922 265V258H73.5222V259.38H70.4722V260.56H72.8522V261.94H70.4722V263.62H73.5222V265H69.0922ZM78.8498 265.13C78.3631 265.13 77.9098 265.035 77.4898 264.845C77.0731 264.655 76.7081 264.393 76.3948 264.06C76.0848 263.723 75.8431 263.335 75.6698 262.895C75.4964 262.455 75.4098 261.987 75.4098 261.49C75.4098 260.957 75.5048 260.47 75.6948 260.03C75.8848 259.59 76.1431 259.21 76.4698 258.89C76.7964 258.567 77.1664 258.318 77.5798 258.145C77.9964 257.968 78.4298 257.88 78.8798 257.88C79.3731 257.88 79.8564 257.995 80.3298 258.225C80.8031 258.455 81.2264 258.82 81.5998 259.32L80.3698 259.98C80.1564 259.733 79.9181 259.55 79.6548 259.43C79.3948 259.31 79.1298 259.25 78.8598 259.25C78.5898 259.25 78.3298 259.305 78.0798 259.415C77.8331 259.525 77.6131 259.682 77.4198 259.885C77.2264 260.088 77.0731 260.328 76.9598 260.605C76.8464 260.882 76.7898 261.187 76.7898 261.52C76.7898 261.83 76.8431 262.12 76.9498 262.39C77.0598 262.66 77.2098 262.897 77.3998 263.1C77.5898 263.303 77.8098 263.463 78.0598 263.58C78.3131 263.693 78.5831 263.75 78.8698 263.75C79.0464 263.75 79.2198 263.725 79.3898 263.675C79.5631 263.622 79.7281 263.545 79.8848 263.445C80.0414 263.345 80.1848 263.22 80.3148 263.07C80.4481 262.92 80.5648 262.747 80.6648 262.55H79.5798V261.35H82.2898C82.3098 261.867 82.2348 262.353 82.0648 262.81C81.8948 263.267 81.6514 263.67 81.3348 264.02C81.0181 264.367 80.6481 264.638 80.2248 264.835C79.8014 265.032 79.3431 265.13 78.8498 265.13ZM87.4477 265.13C86.9743 265.13 86.5293 265.037 86.1127 264.85C85.696 264.66 85.3293 264.398 85.0127 264.065C84.696 263.732 84.4477 263.347 84.2677 262.91C84.0877 262.47 83.9977 262 83.9977 261.5C83.9977 261 84.0877 260.532 84.2677 260.095C84.4477 259.655 84.696 259.268 85.0127 258.935C85.3293 258.602 85.696 258.342 86.1127 258.155C86.5293 257.965 86.9743 257.87 87.4477 257.87C87.9243 257.87 88.371 257.965 88.7877 258.155C89.2043 258.342 89.571 258.602 89.8877 258.935C90.2043 259.268 90.451 259.655 90.6277 260.095C90.8077 260.532 90.8977 261 90.8977 261.5C90.8977 262 90.8077 262.47 90.6277 262.91C90.451 263.347 90.2043 263.732 89.8877 264.065C89.571 264.398 89.2043 264.66 88.7877 264.85C88.371 265.037 87.9243 265.13 87.4477 265.13ZM87.4477 263.75C87.731 263.75 87.9977 263.692 88.2477 263.575C88.4977 263.455 88.7177 263.292 88.9077 263.085C89.0977 262.878 89.246 262.64 89.3527 262.37C89.4627 262.1 89.5177 261.81 89.5177 261.5C89.5177 261.19 89.4627 260.9 89.3527 260.63C89.246 260.357 89.0977 260.118 88.9077 259.915C88.7177 259.708 88.4977 259.547 88.2477 259.43C87.9977 259.31 87.731 259.25 87.4477 259.25C87.1643 259.25 86.8977 259.31 86.6477 259.43C86.3977 259.547 86.1777 259.708 85.9877 259.915C85.7977 260.122 85.6477 260.36 85.5377 260.63C85.431 260.9 85.3777 261.19 85.3777 261.5C85.3777 261.81 85.431 262.102 85.5377 262.375C85.6477 262.645 85.7977 262.883 85.9877 263.09C86.1777 263.293 86.3977 263.455 86.6477 263.575C86.8977 263.692 87.1643 263.75 87.4477 263.75ZM92.7758 265V258H95.5558C95.9358 258 96.2791 258.097 96.5858 258.29C96.8958 258.48 97.1408 258.737 97.3208 259.06C97.5041 259.38 97.5958 259.735 97.5958 260.125C97.5958 260.432 97.5424 260.717 97.4358 260.98C97.3291 261.24 97.1791 261.468 96.9858 261.665C96.7924 261.862 96.5674 262.015 96.3108 262.125L97.9758 265H96.3858L94.7908 262.25H94.1558V265H92.7758ZM94.1558 260.87H95.3908C95.5408 260.87 95.6774 260.833 95.8008 260.76C95.9274 260.683 96.0274 260.582 96.1008 260.455C96.1774 260.325 96.2158 260.182 96.2158 260.025C96.2158 259.872 96.1774 259.732 96.1008 259.605C96.0274 259.475 95.9274 259.372 95.8008 259.295C95.6774 259.218 95.5408 259.18 95.3908 259.18H94.1558V260.87ZM103.554 258H105.184L102.764 261.845V265H101.384V261.845L98.9641 258H100.594L102.074 260.345L103.554 258Z" fill="#450BC8"/>
<path d="M250.664 168.748C252.818 166.486 256.27 166.419 258.5 168.549C260.73 166.419 264.182 166.486 266.336 168.748C268.555 171.078 268.555 174.855 266.336 177.185L259.175 184.706C258.996 184.894 258.753 185 258.5 185C258.247 185 258.004 184.894 257.825 184.706L250.664 177.185C248.445 174.855 248.445 171.078 250.664 168.748Z" fill="#D9D9D9"/>
</g>
<defs>
<filter id="filter0_d_5238_978" x="0" y="0" width="310" height="310" filterUnits="userSpaceOnUse" color-interpolation-filters="sRGB">
<feFlood flood-opacity="0" result="BackgroundImageFix"/>
<feColorMatrix in="SourceAlpha" type="matrix" values="0 0 0 0 0 0 0 0 0 0 0 0 0 0 0 0 0 0 127 0" result="hardAlpha"/>
<feOffset dy="8"/>
<feGaussianBlur stdDeviation="8"/>
<feComposite in2="hardAlpha" operator="out"/>
<feColorMatrix type="matrix" values="0 0 0 0 0.294118 0 0 0 0 0.203922 0 0 0 0 0.145098 0 0 0 0.05 0"/>
<feBlend mode="normal" in2="BackgroundImageFix" result="effect1_dropShadow_5238_978"/>
<feBlend mode="normal" in="SourceGraphic" in2="effect1_dropShadow_5238_978" result="shape"/>
</filter>
</defs>
</svg>
